<svg width="112" height="90" viewBox="0 0 112 90" fill="none" xmlns="http://www.w3.org/2000/svg">
<g clip-path="url(#clip0)">
<path d="M38.2999 12.2791C34.2999 13.1091 30.2999 13.8491 26.2999 14.4291C28.7699 10.2491 31.6899 4.80913 30.1999 0.489132C29.9999 -0.130868 29.3799 -0.0808684 28.9999 0.229132V0.179132C24.8999 3.59913 22.4299 10.1791 19.5599 14.6791L19.1999 15.2291L18.3099 15.2991C18.252 15.2579 18.1984 15.211 18.1499 15.1591C15.6799 12.9991 13.1899 10.7991 10.6499 8.73913C9.30989 7.64913 7.84989 5.99913 5.99989 5.92913C5.71126 5.91645 5.42829 6.01192 5.20634 6.19688C4.9844 6.38183 4.83946 6.64295 4.79989 6.92913C4.27989 9.53913 7.73989 13.1091 10.6399 15.7891C7.29507 15.9821 3.98679 16.5867 0.789888 17.5891C0.55396 17.7032 0.35666 17.884 0.222405 18.109C0.0881504 18.3341 0.0228347 18.5936 0.0345411 18.8554C0.0462476 19.1172 0.134462 19.3698 0.288268 19.582C0.442074 19.7941 0.65472 19.9566 0.899888 20.0491C5.36989 21.5491 10.2499 21.6191 15.0199 21.3891C12.6199 24.8191 10.1199 28.1891 7.50989 31.4491C5.01989 34.5391 10.0799 38.1191 12.5099 35.0091C14.9399 31.8991 17.4199 28.4591 19.6799 25.0091C21.4666 26.9854 23.3807 28.8427 25.4099 30.5691C27.8799 32.6291 30.5899 29.4391 29.7299 26.9691C29.0499 24.9691 26.9099 23.3391 25.4699 21.9091C25.0599 21.4991 24.6399 21.1191 24.2199 20.7191C29.3634 20.3724 34.4572 19.4944 39.4199 18.0991C40.0921 17.8564 40.6556 17.3817 41.0089 16.7605C41.3622 16.1393 41.4821 15.4123 41.347 14.7105C41.212 14.0087 40.8308 13.3782 40.2722 12.9324C39.7136 12.4867 39.0142 12.255 38.2999 12.2791Z" fill="#231F20"/>
</g>
<g clip-path="url(#clip1)">
<path d="M91.7655 45.1082C89.5239 48.5235 87.2188 51.8752 84.8005 55.1137C83.5913 50.4115 81.8094 44.5001 77.7011 42.4989C77.1213 42.202 76.7182 42.6757 76.6687 43.1636L76.6334 43.1283C76.1525 48.4457 79.0588 54.845 80.2113 60.0564L80.3457 60.6999L79.7659 61.3787C79.6958 61.3904 79.6247 61.3952 79.5537 61.3928C76.2798 61.612 72.9635 61.8171 69.7108 62.1565C67.9925 62.3333 65.7934 62.1989 64.4358 63.4576C64.2227 63.6527 64.0901 63.9203 64.064 64.208C64.0378 64.4957 64.12 64.7829 64.2944 65.0132C65.7722 67.2265 70.7432 67.3042 74.6888 67.1487C72.4602 69.6503 70.5483 72.4171 68.9966 75.3865C68.9105 75.634 68.8988 75.9013 68.963 76.1554C69.0272 76.4094 69.1645 76.6391 69.3579 76.816C69.5513 76.9928 69.7923 77.109 70.0511 77.1503C70.3099 77.1916 70.5751 77.1561 70.8139 77.0482C75.0353 74.9481 78.5355 71.5469 81.7458 68.0114C82.4741 72.1338 83.0893 76.2845 83.5489 80.4352C83.9731 84.3809 90.0826 83.3344 89.6017 79.417C89.1209 75.4996 88.4421 71.3135 87.6006 67.276C90.2615 67.41 92.9282 67.3698 95.5838 67.1558C98.787 66.8658 98.4476 62.6939 96.093 61.5555C94.1979 60.6221 91.5321 60.9827 89.5027 60.9898C88.9229 60.9898 88.3572 61.0181 87.7774 61.0322C91.1692 57.1501 94.1502 52.9274 96.6728 48.4316C96.9765 47.7846 97.0393 47.0505 96.8498 46.3614C96.6603 45.6723 96.2311 45.0735 95.6394 44.6727C95.0476 44.272 94.3323 44.0957 93.6221 44.1755C92.9119 44.2553 92.2535 44.5861 91.7655 45.1082Z" fill="#231F20"/>
</g>
<defs>
<clipPath id="clip0">
<rect width="41.73" height="36.23" fill="white"/>
</clipPath>
<clipPath id="clip1">
<rect width="41.73" height="36.23" fill="white" transform="translate(56 63.5078) rotate(-45)"/>
</clipPath>
</defs>
</svg>
