<svg width="500" height="500" viewBox="0 0 500 500" fill="none" xmlns="http://www.w3.org/2000/svg">
<path d="M334.593 340.926L333.155 340.351C328.553 338.912 328.553 338.912 328.553 331.433V330.57V329.995C326.539 321.653 332.867 298.641 342.648 279.08C359.907 238.808 365.66 218.384 368.825 188.181V187.605C368.825 119.143 344.949 76.8576 296.047 58.4476C252.611 42.9141 216.654 52.6944 174.944 91.528C166.602 100.445 159.411 110.801 153.658 121.732C144.453 140.142 144.453 147.046 144.453 167.469C144.453 201.413 156.822 239.671 174.657 260.382C195.08 283.107 201.984 304.681 199.107 334.31C199.107 338.625 193.354 349.843 191.341 354.158V354.446C186.738 361.637 182.711 369.116 189.327 375.732L191.053 377.458H191.341C193.067 380.91 193.642 384.937 193.642 389.252C193.93 393.279 194.217 397.594 195.08 401.621C195.655 405.073 196.231 408.813 196.518 411.977C196.518 420.031 198.532 426.648 202.272 429.812C202.272 437.003 203.135 444.195 205.436 451.098C211.189 468.645 212.052 471.234 226.722 474.974H228.161C237.078 474.974 247.146 481.59 248.297 483.891V494.534L249.735 496.26C251.461 498.562 254.337 500 257.214 500C260.666 500 264.981 498.562 276.199 494.822L283.103 492.233C289.719 489.644 293.171 488.206 294.897 483.891C295.76 481.59 295.472 479.001 294.322 476.7C294.322 476.124 294.322 475.549 294.322 475.262C295.185 475.262 296.335 475.262 297.198 475.262H304.677C314.17 478.138 332.867 468.07 339.196 458.29L340.059 456.851V455.413C340.347 453.687 340.347 451.961 340.922 450.235C342.073 444.482 342.935 438.442 342.935 432.113C342.935 428.086 343.511 422.045 344.374 415.717V415.141C344.949 409.101 345.812 402.772 345.812 398.17C352.14 368.253 344.374 347.542 334.593 340.926ZM259.515 478.138C261.529 478.138 263.83 477.275 266.131 476.412C267.857 475.837 269.871 475.262 271.021 475.262H271.597L272.172 474.974C277.637 473.248 279.363 474.111 279.651 474.399C279.651 474.399 279.939 474.686 279.939 474.974C279.651 475.837 277.35 477.563 275.912 478.713C274.761 479.576 273.61 480.439 272.747 481.302C262.104 483.891 261.241 483.316 259.803 480.439C259.515 479.289 259.515 478.713 259.515 478.138ZM240.242 460.879L222.983 455.126C222.12 453.687 220.969 449.085 220.969 446.496C222.983 447.071 227.01 448.222 232.188 451.386L232.475 451.674C244.557 457.715 265.268 457.714 291.733 451.961C314.17 449.372 323.375 449.66 327.114 450.235C324.525 452.537 319.635 455.413 314.458 457.139C310.43 458.577 307.841 458.577 306.978 458.002L306.403 457.714H305.54C297.486 457.714 289.719 458.577 281.952 460.591C259.228 466.344 256.926 466.344 240.242 460.879ZM273.898 429.237C310.143 429.237 326.539 429.237 328.553 431.25C328.553 431.25 328.553 431.538 328.553 432.113V432.688L328.84 433.264C329.128 433.551 329.128 433.839 329.128 433.839C327.114 434.99 319.06 435.853 308.992 437.003L302.088 437.866C250.023 443.619 245.42 443.619 231.9 435.277L231.325 434.99C227.298 433.551 220.969 431.538 217.805 429.812C224.133 429.237 241.68 429.237 273.898 429.237ZM328.553 405.361V405.936C328.553 409.676 326.827 412.84 323.95 415.141C317.909 417.443 254.05 420.319 236.79 417.443C224.709 416.004 217.805 415.429 214.641 413.703C212.34 412.552 211.764 410.826 210.614 405.361C210.614 403.635 210.614 402.197 210.614 401.334C211.764 401.622 213.49 402.197 215.216 402.772H215.504C242.256 408.813 308.704 408.525 320.211 405.649L328.84 403.923L328.553 405.361ZM258.94 206.303C259.515 205.728 259.803 205.152 260.09 204.865C260.953 206.591 262.392 212.631 262.392 230.466V264.409C262.104 265.272 261.816 266.135 261.529 266.998C258.94 254.054 256.926 211.768 258.94 206.303ZM225.284 223.562C229.599 231.617 236.215 263.834 236.215 285.121C235.927 290.011 235.352 294.613 234.489 299.503C231.612 292.887 227.585 277.354 224.709 256.067L224.421 253.478C222.695 239.383 223.846 228.165 225.284 223.562ZM323.95 366.24C313.307 371.418 271.309 374.582 251.461 368.829L244.845 367.966C238.804 367.103 233.914 366.527 231.325 366.24C233.338 363.076 236.215 356.747 239.379 340.351C240.817 331.146 241.393 325.68 242.831 323.667C243.406 322.804 243.694 322.516 248.297 322.516C257.214 322.516 259.227 319.064 264.405 309.859C264.981 308.996 265.556 308.133 266.131 306.983L266.419 307.27C270.158 311.01 276.775 313.023 282.528 312.16C286.555 311.585 289.719 309.571 291.157 306.407L291.445 305.832V305.257C291.445 302.38 291.445 302.38 294.322 302.38C296.335 302.38 298.349 301.517 299.787 300.654C300.938 300.079 302.088 299.503 302.951 299.503H304.102L304.39 299.216C304.965 300.654 305.828 304.681 305.828 313.886C305.828 338.912 305.828 348.405 314.17 348.405C315.896 348.405 317.046 349.843 317.334 351.569V352.145L317.622 352.72C321.074 359.624 324.813 360.199 328.84 360.199H329.416L329.991 359.911C330.566 359.911 330.854 359.624 331.142 359.624C329.703 361.062 327.69 363.651 323.95 366.24ZM207.737 374.869C211.189 375.445 216.942 376.308 223.558 377.171C229.887 378.034 237.078 379.184 244.557 380.335C251.461 381.486 256.926 382.636 261.816 383.499C280.802 386.951 286.555 388.102 303.239 383.211C308.129 382.061 313.307 381.198 318.197 380.623C323.95 379.76 327.69 379.472 330.566 378.321C330.566 380.335 329.416 384.074 326.539 386.951C323.375 390.115 310.143 395.293 259.515 391.841C209.751 391.841 207.737 388.389 207.737 380.335V374.869ZM164.013 128.348C172.355 111.376 186.45 97.5688 212.052 80.5971C239.667 61.3241 287.13 63.913 317.909 86.3502C332.58 98.1441 346.1 124.033 351.277 150.785C357.318 192.783 353.003 221.549 334.306 264.122C327.114 278.505 317.334 299.791 313.882 321.653C313.307 322.228 313.019 322.804 312.732 323.667C313.019 313.599 315.32 294.613 319.348 286.847C321.361 282.819 322.224 278.505 322.512 274.19V273.039L321.649 272.176C320.211 270.738 318.197 270.45 316.183 271.313C312.732 272.751 308.992 278.217 308.129 281.956C308.129 281.381 308.129 280.806 308.129 280.231V270.45L307.266 269.587C305.828 268.149 303.814 267.574 302.088 268.437C297.486 270.45 296.623 279.943 296.623 285.984C296.335 287.997 295.76 290.011 294.897 292.024H294.609C293.746 290.874 293.746 283.395 293.746 271.889C293.746 250.89 290.87 240.246 285.117 240.246C282.815 240.246 280.802 241.397 279.363 243.411C275.049 249.451 275.049 262.396 279.363 275.628C283.103 293.175 281.089 301.805 279.363 302.38C279.076 302.38 276.775 301.805 273.035 296.339C270.446 290.874 267.857 285.696 270.446 269.587C276.199 241.109 273.61 205.44 270.158 198.824L269.871 198.536L269.583 198.249C264.693 193.358 260.666 193.071 258.077 193.646C255.776 194.221 252.324 196.235 250.31 201.988C244.269 216.659 246.858 254.341 253.187 275.628C255.2 284.833 256.063 294.038 256.063 303.243C254.05 310.722 252.611 312.736 251.748 313.311C251.173 313.599 250.31 313.311 248.872 312.736L248.297 312.448H247.721C245.132 312.448 244.557 310.147 242.256 281.669L241.968 277.929C241.968 243.986 237.078 217.234 229.599 209.755L229.311 209.467L229.024 209.179C227.873 208.604 224.709 206.878 221.545 208.604C217.517 210.618 215.504 216.659 213.49 231.617C210.614 254.054 218.668 289.436 228.161 308.133L228.448 308.421C233.626 315.9 233.626 317.914 231.037 332.009C229.887 334.598 229.024 336.899 228.448 338.912C225.284 346.967 224.709 348.405 221.545 350.131C219.819 350.419 217.805 350.994 215.791 351.569C214.065 352.145 212.052 352.72 210.901 352.72C210.901 352.145 210.901 351.282 210.901 350.419C213.778 344.09 213.778 332.872 213.778 321.078C213.778 293.463 203.71 277.929 187.313 255.78C176.958 243.698 168.903 230.178 164.013 215.22C159.123 200.262 156.822 184.441 156.534 168.62V167.757C155.959 149.635 156.247 143.881 164.013 128.348Z" fill="#231F20"/>
<path d="M170.343 49.8182L170.63 51.2565C171.205 52.9824 172.068 54.7083 172.931 56.1466C174.082 58.1602 176.383 59.3108 178.685 59.3108C179.26 59.3108 180.123 59.3108 180.698 59.0232C185.588 57.2972 187.027 50.9688 184.438 42.6268C184.15 33.7094 178.397 29.1069 172.931 29.1069C167.178 29.1069 164.302 31.9835 164.302 37.7366V40.0379L166.028 41.7638C168.329 44.0651 169.767 46.654 170.343 49.8182Z" fill="#231F20"/>
<path d="M91.8116 141.58C96.1265 142.731 100.729 143.594 105.331 143.881C109.071 143.881 111.372 142.731 112.811 140.142C114.249 137.265 113.386 133.813 111.085 131.8C105.619 126.334 94.1129 121.732 88.3598 124.033C85.7709 125.184 84.0449 127.485 84.0449 130.361C84.0449 137.265 86.6338 141.005 91.8116 141.58Z" fill="#231F20"/>
<path d="M128.057 84.6246C130.646 88.9394 134.097 92.3913 138.7 94.9802L139.851 95.5555H141.289C145.604 95.5555 148.48 94.1172 149.631 91.2407C151.645 86.3505 147.33 82.0357 142.44 77.1455C134.385 69.0911 128.344 67.0775 124.317 70.817C123.454 71.68 120.865 74.8442 124.03 80.0221C125.468 81.4603 126.618 83.1863 128.057 84.6246Z" fill="#231F20"/>
<path d="M110.222 207.741C113.961 207.166 117.701 206.015 120.865 204.289L124.029 202.851V199.399C124.029 190.77 114.824 190.77 103.893 190.77C93.5379 190.77 87.2094 190.77 84.0452 195.66C82.6069 198.536 82.6069 202.276 84.3329 204.865L86.0588 208.029L110.222 207.741Z" fill="#231F20"/>
<path d="M139.563 268.149C131.796 266.136 122.878 269.875 117.701 273.615C114.824 275.628 109.934 279.943 109.934 285.121C109.646 287.71 111.085 290.299 113.386 291.737C114.536 292.312 115.687 292.6 117.125 292.6C120.865 292.6 125.755 290.299 136.111 284.258C138.987 282.532 141.001 281.094 142.439 280.519C144.74 279.368 148.48 277.067 147.329 272.464C145.891 268.149 142.439 268.149 139.563 268.149Z" fill="#231F20"/>
<path d="M239.38 38.024H245.133V26.2301C244.845 23.9289 244.558 21.9153 243.695 19.614C242.832 17.0251 242.256 14.4362 242.256 11.8473V9.25839L240.53 7.53246C239.955 6.95714 239.38 6.38182 239.092 5.80651C237.654 2.35464 234.49 0.341043 231.038 0.0533865C228.449 -0.23427 225.86 0.628699 224.134 2.92995C221.833 6.38182 222.696 8.39542 227.873 21.34C228.449 29.9696 232.764 38.024 239.38 38.024Z" fill="#231F20"/>
<path d="M391.837 225.864L390.399 225.288C382.92 222.699 380.331 221.836 377.167 224.138L376.879 224.425C374.866 226.151 374.003 228.453 374.29 231.041C374.29 236.219 378.317 239.959 381.769 243.411L382.345 243.986L382.92 244.274C386.947 246.575 391.262 247.726 395.864 247.726C396.727 248.013 397.878 248.301 398.741 248.301C401.042 248.301 403.056 247.15 403.919 245.424C409.672 237.37 392.125 225.864 391.837 225.864Z" fill="#231F20"/>
<path d="M368.825 271.025C361.058 271.025 359.332 275.34 359.045 277.354C357.894 283.682 365.373 286.559 368.537 287.71C369.4 288.572 370.551 289.435 371.701 290.298C372.564 290.874 373.427 291.737 374.29 292.6V293.75L376.016 295.476C378.893 298.353 382.632 301.517 386.372 301.517C387.235 301.517 388.385 301.229 389.248 300.942C391.55 300.079 394.139 297.49 394.139 291.449C394.714 283.97 376.592 271.025 368.825 271.025Z" fill="#231F20"/>
<path d="M365.373 81.1726C366.524 82.0356 368.25 82.6109 369.976 82.6109C369.976 82.6109 369.976 82.6109 370.263 82.6109C374.578 82.0356 378.893 80.022 381.482 76.8578C385.221 73.1182 388.673 69.6663 386.66 65.3515C385.797 63.3379 384.358 61.8996 382.345 61.3243C379.181 59.886 375.729 59.886 372.565 61.3243C369.4 62.7626 364.222 65.9268 363.072 70.817C361.058 75.7071 362.784 79.4467 365.373 81.1726Z" fill="#231F20"/>
<path d="M306.115 36.5856H306.691H306.978C314.17 35.7226 314.17 25.6546 314.17 20.7645V19.3262L313.882 18.7509C313.307 16.7373 312.731 15.299 312.444 13.8607C311.006 8.97057 309.28 3.5051 302.951 3.5051C300.65 3.5051 298.349 4.65573 296.91 6.66932C294.321 10.4089 294.609 16.162 297.486 25.0793C298.061 28.5312 299.787 36.5856 306.115 36.5856Z" fill="#231F20"/>
<path d="M338.909 53.2697C339.484 53.5573 340.347 53.845 341.21 53.845C344.662 53.845 346.963 51.2561 349.552 48.3795L349.84 48.0918C350.703 47.2289 351.853 46.0783 352.716 44.9276L353.292 44.3523L353.579 43.4893C358.469 33.709 360.483 28.2436 357.894 24.2164C356.456 21.9151 353.867 20.7645 351.278 20.7645C347.826 20.7645 343.799 24.2164 339.772 30.8325C337.758 33.9967 334.019 40.6128 334.019 43.777C334.306 46.3659 334.306 51.5437 338.909 53.2697Z" fill="#231F20"/>
<path d="M380.906 118.28L381.194 119.143L381.769 119.431C383.495 121.732 386.084 123.17 388.96 123.17C392.125 123.17 395.289 121.444 401.905 118.28L402.48 117.993C407.946 116.267 414.274 113.39 415.425 107.925C416 105.048 415.137 101.884 412.836 99.8703C407.083 94.1172 390.686 101.596 385.508 105.336C379.755 110.226 379.18 115.116 380.906 118.28Z" fill="#231F20"/>
<path d="M409.097 165.168C404.206 161.716 395.864 163.73 391.837 165.455C386.372 167.757 383.208 171.784 383.208 176.099V178.4L384.933 180.126C386.372 181.564 390.687 184.728 400.467 184.728C408.809 184.728 415.137 180.989 416.288 174.948C416.576 170.633 413.987 167.181 409.097 165.168Z" fill="#231F20"/>
</svg>
