<svg width="549" height="259" viewBox="0 0 549 259" fill="none" xmlns="http://www.w3.org/2000/svg">
<g clip-path="url(#clip0)">
<path d="M8.89519 99.1306C8.68673 99.0394 8.50242 98.9002 8.35691 98.7241C8.21139 98.5479 8.10905 98.3406 8.05786 98.1183C8.06316 97.9102 8.11388 97.7061 8.20619 97.5196C8.2985 97.3332 8.43051 97.1695 8.59266 97.0396C14.1602 90.8683 20.4068 85.3481 27.2126 80.5852L30.0917 78.4783C35.7621 73.844 42.0038 69.9614 48.662 66.9269C48.8937 66.8267 49.1452 66.7812 49.3968 66.7937C49.6486 66.8063 49.8939 66.8766 50.1138 66.9995C50.5754 67.2092 50.9721 67.5389 51.2632 67.9544C51.5542 68.37 51.729 68.8563 51.7692 69.3629C51.79 69.6211 51.74 69.8804 51.6249 70.1127C51.5097 70.3449 51.3337 70.5417 51.1157 70.6815C47.196 73.9121 43.0406 76.844 38.6847 79.4522C36.2816 80.9987 33.8585 82.4856 31.4555 84.0324C29.0522 85.5783 26.2923 87.7441 23.7109 89.6502C19.4218 93.0429 14.9466 96.1921 10.307 99.0839C10.0956 99.2138 9.85439 99.287 9.60675 99.2951C9.35911 99.3033 9.11396 99.2469 8.89519 99.1306ZM403.982 217.955C402.492 217.376 401.131 216.506 399.979 215.397C398.827 214.287 397.905 212.96 397.267 211.491C402.169 210.817 407.152 211.749 411.472 214.151C413.545 215.031 415.664 215.8 417.82 216.452C422.764 217.649 427.791 218.477 432.859 218.929C436.977 219.426 441.233 219.943 445.351 220.84L446.029 221.176C446.437 221.372 446.77 221.699 446.972 222.106C447.175 222.513 447.236 222.976 447.147 223.422C447.057 223.997 446.786 224.53 446.377 224.943C445.967 225.356 445.438 225.63 444.864 225.725C434.856 226.727 424.758 225.448 415.326 221.985L413.117 221.338C410.011 220.518 406.981 219.433 404.062 218.094L403.982 217.955ZM367.571 189.256C362.944 186.079 359.188 181.788 356.648 176.774C355.93 175.622 355.271 174.549 354.573 173.556L353.616 172.086C349.629 167.159 346.919 161.32 345.726 155.085C349.856 158.01 353.331 161.767 355.931 166.116L358.563 169.71C359.759 171.298 361.254 172.985 362.788 174.691C366.61 178.2 369.544 182.571 371.346 187.444C371.453 187.813 371.455 188.205 371.35 188.576C371.245 188.947 371.038 189.281 370.754 189.54C370.475 189.765 370.139 189.908 369.785 189.952C369.43 189.996 369.07 189.939 368.746 189.788L367.571 189.256ZM86.0654 45.9952C85.7132 45.8171 85.4096 45.5562 85.1804 45.2345C84.9511 44.9129 84.8031 44.5401 84.7492 44.1482C84.7206 43.9435 84.7544 43.7347 84.8463 43.5493C84.9382 43.3639 85.0839 43.2105 85.2641 43.1093C92.7291 39.3328 100.605 36.4379 108.732 34.4836L111.157 33.794C116.206 32.4135 123.082 30.4465 127.143 32.4595C127.672 32.7161 128.156 33.057 128.576 33.4688C128.851 33.7203 129.015 34.0701 129.035 34.4424C129.054 34.815 128.927 35.1805 128.681 35.4611C127.053 37.4423 125.623 37.5288 123.117 37.6808L121.506 37.8284C117.181 38.2968 112.896 39.0838 108.684 40.1836C106.16 40.8737 103.616 41.8031 101.172 42.732C96.6977 44.8234 91.8507 45.993 86.921 46.1704C86.6256 46.1823 86.332 46.1222 86.0654 45.9952ZM477.464 228.394C477.3 228.295 477.169 228.15 477.088 227.977C477.007 227.804 476.978 227.61 477.004 227.42C476.981 227.122 477.039 226.824 477.171 226.557C477.304 226.29 477.507 226.063 477.757 225.902C482.587 224.133 487.535 222.711 492.563 221.643C496.877 220.546 501.329 219.467 505.482 218.092C512.079 215.718 518.482 212.834 524.636 209.467L527.675 207.837L524.372 206.997C518.853 205.602 513.497 203.631 508.392 201.117C506.56 200.209 504.768 199.221 503.016 198.154C502.71 197.972 502.445 197.729 502.234 197.442C502.024 197.155 501.873 196.829 501.791 196.481C501.709 196.135 501.697 195.775 501.756 195.423C501.814 195.071 501.942 194.734 502.133 194.431C502.239 194.177 502.395 193.947 502.593 193.757C502.79 193.565 503.025 193.417 503.283 193.32C503.54 193.224 503.814 193.181 504.088 193.195C504.362 193.209 504.63 193.279 504.875 193.401C507.065 194.487 508.718 195.654 510.748 196.661C518.532 200.539 526.936 203.021 535.582 203.992L536.179 204.288C536.684 204.607 537.069 205.084 537.275 205.644C537.481 206.206 537.496 206.82 537.319 207.392L537.121 207.791L537.28 208.169C537.408 208.506 537.449 208.868 537.402 209.225C536.753 212.836 535.846 216.467 534.978 220.019C534.524 221.735 534.129 223.431 533.716 225.167C533.302 226.903 533.046 228.319 532.711 229.895C532.174 233.219 531.348 236.491 530.245 239.673C530.17 239.895 530.048 240.098 529.886 240.267C529.725 240.436 529.53 240.568 529.313 240.655C528.962 240.786 528.588 240.843 528.214 240.82C527.841 240.799 527.476 240.698 527.145 240.525C526.803 240.384 526.508 240.144 526.299 239.838C526.091 239.531 525.975 239.169 525.969 238.798C526.25 230.453 528.087 222.231 531.387 214.556L532.831 210.941L529.475 212.911C509.176 224.85 491.746 230.197 477.664 228.892L477.464 228.394ZM327.126 132.477C326.641 132.233 326.245 131.845 325.99 131.366C322.638 125.723 319.185 119.681 315.073 112.367C314.215 110.797 313.277 109.187 312.439 107.676C310.005 103.834 307.914 99.7825 306.189 95.5698C306.184 95.4845 306.202 95.398 306.24 95.321C306.278 95.2439 306.336 95.1785 306.408 95.1304C306.55 94.9614 306.746 94.8468 306.963 94.8094L307.76 95.2032C311.795 97.783 315.032 101.438 317.108 105.761L318.604 108.244C323.154 115.477 327.164 121.894 330.796 127.974C331.146 128.519 331.3 129.167 331.232 129.813C331.165 130.458 330.88 131.061 330.425 131.524C330.021 132.002 329.48 132.346 328.876 132.509C328.273 132.673 327.634 132.647 327.046 132.437L327.126 132.477ZM164.461 28.4092L162.988 27.679C166.918 23.5533 175.39 23.8706 181.654 23.9392L184.737 24.0241L188.693 23.944C194.237 23.3335 199.844 23.9382 205.124 25.716C206.07 26.1647 206.922 26.7889 207.633 27.5576C207.797 27.7362 207.926 27.9462 208.008 28.1756C208.09 28.4037 208.126 28.6471 208.113 28.8905C208.111 29.0368 208.076 29.1816 208.011 29.3129C207.946 29.4438 207.852 29.5599 207.737 29.6504C203.686 32.3204 197.002 31.2969 191.273 30.4489C188.904 30.0476 186.513 29.7936 184.112 29.6863C182.322 29.5956 180.373 29.7253 178.285 29.8348C173.66 30.5122 168.945 30.0846 164.522 28.588L164.461 28.4092ZM278.473 68.5426C278.036 68.3112 277.654 67.987 277.357 67.5915C271.963 60.849 265.864 54.7048 259.163 49.2659C257.311 47.8001 255.32 46.4147 253.348 45.0898C249.551 42.8134 246.131 39.9584 243.209 36.6294C243.234 36.4224 243.333 36.2309 243.485 36.0879C243.637 35.9449 243.835 35.8604 244.043 35.848C247.603 36.1407 251.068 37.1465 254.23 38.8077C264.9 44.096 275.025 55.2866 282.621 64.3768C283.024 64.7723 283.263 65.3075 283.285 65.874C283.309 66.441 283.116 66.9953 282.746 67.4251C282.238 68.0468 281.545 68.4891 280.768 68.6871C279.991 68.8842 279.173 68.8273 278.433 68.5233L278.473 68.5426Z" fill="#3167B9"/>
</g>
<defs>
<clipPath id="clip0">
<rect width="549" height="259" fill="white"/>
</clipPath>
</defs>
</svg>
