<svg width="82" height="64" viewBox="0 0 82 64" fill="none" xmlns="http://www.w3.org/2000/svg">
<g clip-path="url(#clip0)">
<path d="M32.1136 50.249C32.2419 50.1848 32.3703 50.1206 32.4937 50.0515C32.7083 49.9647 32.8802 49.7971 32.9725 49.5848C33.0648 49.3725 33.0701 49.1324 32.9873 48.9163C28.0667 39.573 22.5894 30.5338 16.585 21.8473C12.9373 16.5806 8.92432 10.154 2.69017 16.4572C-3.18859 22.3804 1.70297 27.81 6.69325 32.8052C13.4457 39.5626 22.1725 46.4236 30.6427 50.8413C30.7781 50.8991 30.9236 50.9296 31.0709 50.9311C31.2182 50.9326 31.3643 50.9051 31.5009 50.8501C31.6375 50.7951 31.762 50.7137 31.8671 50.6105C31.9722 50.5074 32.056 50.3845 32.1136 50.249ZM10.5877 31.3787C8.68739 29.6166 3.4898 25.1742 3.00607 22.183C2.83331 21.1118 4.22526 18.1749 5.15816 17.3753C9.71901 13.466 12.3499 18.6439 14.0824 21.1118C15.8824 23.6818 17.6413 26.288 19.359 28.9304C20.3857 30.51 28.2043 43.1856 30.2478 47.5243C26.452 43.9655 22.1676 40.8854 18.1151 37.6523C15.5583 35.6187 12.9768 33.6098 10.5877 31.3787ZM42.7161 54.3409C41.3093 52.4554 37.5432 51.3003 35.7169 53.1464C35.0498 53.5017 34.4893 54.0282 34.0929 54.6716C33.2577 56.0542 32.9922 57.7072 33.3525 59.2818C34.1324 62.737 37.938 65.3136 41.2797 63.2849C44.1426 61.5425 44.6559 56.9422 42.7161 54.3409ZM38.5797 60.3727C36.8225 59.9581 36.5609 57.9047 36.9163 56.4239C37.1679 55.7673 37.3805 55.0965 37.553 54.4149C37.8528 54.3388 38.1637 54.3171 38.4711 54.3508C38.9861 54.4638 39.4625 54.7096 39.8531 55.0637C40.2436 55.4179 40.5346 55.8681 40.6973 56.3696C41.2896 57.9195 40.8256 60.9008 38.5797 60.3727V60.3727Z" fill="#231F20"/>
<path d="M63.7384 1.08077C61.3099 -1.18485 57.0501 0.621723 54.5723 1.87546C51.2109 3.58331 49.1427 6.4758 49.7745 10.3308C50.7617 16.0319 54.6216 22.2463 57.1785 27.4044C59.9081 32.9376 62.687 39.3248 67.2282 43.6092C67.7909 44.7346 68.9557 45.248 70.4662 44.71C74.0694 43.4365 72.485 37.6762 72.1296 35.0946C71.3003 29.0695 70.1766 23.092 68.7583 17.1622C67.9883 13.9242 67.136 10.7059 66.2015 7.50742C65.6486 5.65643 65.2686 2.51221 63.7384 1.08077ZM64.9675 10.1087C66.0139 13.8798 66.9369 17.6788 67.7366 21.5059C68.4243 24.7669 69.0199 28.0428 69.5234 31.3334C69.7307 32.6513 69.9183 33.9692 70.096 35.2822C70.2243 36.2694 70.3477 37.2566 70.4662 38.2438C70.9005 39.8398 70.1881 41.1017 68.3289 42.0297C68.2696 41.9359 68.1759 41.9112 68.092 41.8619C66.3101 35.7215 62.4402 29.9514 59.7008 24.2009C57.5635 19.6796 48.0469 2.77381 59.1183 2.63561C63.3978 2.60599 63.9951 6.58439 64.9675 10.1087ZM73.1908 49.9174C73.1209 49.9515 73.0547 49.9929 72.9934 50.0408C72.0754 49.89 71.1333 50.0353 70.3033 50.4554C68.6892 51.3587 68.7188 53.3677 69.0347 54.9768C69.7307 58.506 72.8404 62.4894 76.8435 61.8872C80.501 61.3541 82.352 57.1338 81.2858 53.8514C80.2197 50.569 76.4782 48.5896 73.1908 49.9174V49.9174ZM76.646 58.5159C74.6716 59.0391 73.0773 56.66 72.5245 55.115C72.2777 54.4289 71.863 53.3084 72.4949 52.8C72.9885 52.4052 74.1632 52.4446 74.8098 52.1386C76.0685 52.1781 77.3074 52.5878 78.033 53.7083C79.0153 55.2532 78.65 57.9779 76.6312 58.5159H76.646Z" fill="#231F20"/>
</g>
<defs>
<clipPath id="clip0">
<rect width="81.577" height="64" fill="white"/>
</clipPath>
</defs>
</svg>
