<svg width="56" height="56" viewBox="0 0 56 56" fill="none" xmlns="http://www.w3.org/2000/svg">
<g clip-path="url(#clip0)">
<mask id="path-1-outside-1" maskUnits="userSpaceOnUse" x="-0.994385" y="10.1992" width="58" height="36" fill="black">
<rect fill="white" x="-0.994385" y="10.1992" width="58" height="36"/>
<path d="M54.6911 13.025C54.6672 12.9305 54.6198 12.8437 54.5533 12.7723C54.4872 12.701 54.404 12.6474 54.3117 12.6166C54.2195 12.5857 54.1214 12.5786 54.0258 12.5957C53.9298 12.6129 53.8402 12.6539 53.7641 12.7148C53.8813 12.4653 53.9843 12.2095 54.0732 11.9485C54.084 11.8508 54.0732 11.7518 54.0422 11.6587C54.0108 11.5655 53.9597 11.4803 53.8921 11.4091C53.8246 11.3378 53.7424 11.2822 53.6513 11.2462C53.5602 11.2101 53.462 11.1945 53.3642 11.2004C42.6962 11.77 32.066 12.915 21.5202 14.6306C16.3582 15.3787 11.269 16.0538 6.14335 16.8383C4.7438 17.0573 1.1995 16.8383 0.163477 18.0061C0.0852171 18.0956 0.033485 18.2054 0.0141301 18.323C-0.00522481 18.4405 0.00856927 18.5612 0.0539527 18.6713C0.0993362 18.7814 0.174499 18.8765 0.270942 18.946C0.367386 19.0155 0.481262 19.0564 0.599698 19.0643C0.963216 20.5239 4.32578 21.9106 5.19822 22.385C6.70682 23.2243 8.25175 23.9906 9.8149 24.7204C10.8604 25.3515 12.0124 25.7844 13.2138 25.9976C13.3955 27.4208 13.2138 28.8987 13.5591 30.3219C14.1044 32.9674 15.2677 35.3394 15.195 38.1128C15.1847 38.2129 15.2054 38.314 15.2542 38.4021C15.3029 38.4902 15.3774 38.5612 15.4676 38.6052C15.3929 38.7239 15.3682 38.8673 15.3989 39.0043C15.4296 39.141 15.5131 39.2601 15.6312 39.3351C16.9209 40.0127 18.3836 40.286 19.8298 40.1198C23.465 40.1198 26.8275 41.0868 30.3719 41.2876C33.9134 41.3339 37.449 40.9852 40.9139 40.2475C42.9497 39.919 45.3488 40.0833 46.8936 38.5141C46.9825 38.4286 47.0478 38.3215 47.0829 38.2031C47.118 38.0848 47.1217 37.9594 47.0937 37.8391C48.2387 35.5948 47.1844 30.778 47.2027 28.7162C47.2027 25.6327 48.366 22.6404 48.275 19.5934C48.275 19.5934 48.275 19.484 48.275 19.4292C48.4392 19.4908 48.6199 19.4908 48.7842 19.4292C49.9161 18.5924 50.8017 17.4639 51.3467 16.1633C51.965 15.0503 52.8375 14.3387 53.4736 13.3169C53.4647 13.3774 53.4647 13.4389 53.4736 13.4994C54.6926 17.3352 54.8184 21.4369 53.8369 25.3408C53.0734 28.479 52.2375 33.2594 49.2564 35.1022C49.1829 35.146 49.1191 35.2053 49.0698 35.276C49.0209 35.3466 48.9873 35.427 48.972 35.5118C48.9563 35.5965 48.9593 35.6836 48.9802 35.7672C49.0011 35.8508 49.0395 35.9289 49.0929 35.9962C49.0929 35.9962 49.0929 36.0875 49.0929 36.1422C49.0504 36.6835 48.888 37.2085 48.6177 37.679C48.347 38.149 47.9755 38.553 47.5298 38.861C46.9302 39.4445 46.0211 39.7364 45.4761 40.3569C44.2583 41.7435 45.6941 42.7287 46.294 44.0062C46.3407 44.1153 46.4161 44.2101 46.5121 44.2799C46.471 44.4109 46.4695 44.5513 46.5083 44.6831C46.5468 44.8149 46.6237 44.9325 46.7286 45.0202C46.8339 45.1083 46.9627 45.1628 47.0989 45.1774C47.2352 45.1916 47.3726 45.1651 47.4936 45.1009C49.4976 44.2889 51.3669 43.1752 53.0372 41.7983C53.6573 41.0185 54.0366 40.0735 54.1277 39.0797C54.3095 37.8391 53.5826 36.9997 53.5643 35.832C53.5662 35.7411 53.5464 35.651 53.5061 35.5694C53.4662 35.4879 53.4068 35.4173 53.3336 35.3635C53.2604 35.3098 53.1757 35.2746 53.0861 35.2609C52.9965 35.2471 52.905 35.2553 52.8192 35.2847C52.7464 35.0756 52.6149 34.8921 52.441 34.7561C52.267 34.6202 52.0572 34.5376 51.8377 34.5183C53.3243 32.1075 54.3532 29.4414 54.8729 26.6545C55.5038 24.4533 55.8939 22.1897 56.0362 19.9036C55.9791 17.5508 55.5243 15.2249 54.6911 13.025ZM43.313 38.569C38.3331 39.6662 33.2247 40.0594 28.1362 39.7364C25.9187 39.4994 23.7558 39.0249 21.5383 38.861C20.1851 38.9046 18.8305 38.8498 17.4851 38.6967C21.7809 37.6629 26.132 36.8771 30.5173 36.3429C33.1559 36.1146 35.8106 36.1513 38.4421 36.4524C39.5688 36.5801 40.6776 36.6713 41.8043 36.7443C42.9314 36.8173 46.9847 37.9668 43.313 38.569ZM46.6756 22.3485C46.3038 24.1527 46.0667 25.9825 45.9666 27.8222C45.9666 29.2636 46.6394 34.1534 46.185 36.4706C43.5314 34.9562 39.4598 35.2847 36.479 35.0292C29.6812 34.4271 23.1378 36.2882 16.4854 37.6383C16.3484 35.33 15.8706 33.0549 15.0677 30.8875C14.6839 29.3861 14.5065 27.8392 14.5406 26.2896C14.5406 25.1218 14.1044 24.0271 13.9953 22.8776C14.0999 22.8478 14.1928 22.7861 14.2611 22.7012C14.3295 22.6163 14.3699 22.5122 14.377 22.4033C14.5406 20.3232 23.0106 19.0825 24.5919 18.7541C29.8281 17.7601 35.1488 17.2835 40.4775 17.331C43.7673 17.3127 47.5119 18.298 46.6756 22.4033V22.3485ZM50.5471 14.9043C49.9904 16.2187 49.1235 17.3772 48.0207 18.2797L47.8934 18.4987C46.9044 17.5196 45.6318 16.8808 44.2583 16.6741C41.0775 16.0147 37.8097 15.8914 34.5887 16.3092C30.7291 16.4905 26.8921 17.0032 23.1197 17.8418C20.9204 18.3527 14.2498 19.0096 13.1047 21.6734C12.9816 21.6955 12.8671 21.7516 12.774 21.8354C12.6809 21.9192 12.6128 22.0274 12.5776 22.1478C12.5847 22.9951 12.7133 23.8369 12.9593 24.6475C11.787 24.2294 10.6553 23.7042 9.57862 23.0783C8.66981 22.6587 7.761 22.2026 6.88856 21.7282C6.01612 21.2538 5.07099 20.7247 4.10764 20.1955C3.63508 19.9766 1.96289 18.6082 1.81749 19.0643C1.86334 18.922 1.86334 18.7688 1.81749 18.6264C2.50817 18.4987 3.50785 18.4987 3.88954 18.4987C5.70715 18.2615 7.52472 17.9696 9.34233 17.6959C14.2498 16.9843 19.1755 16.3092 24.083 15.6159C33.4778 14.1251 42.9411 13.1082 52.4372 12.5689C51.9284 13.5176 51.147 13.9738 50.5471 14.959V14.9043ZM50.8924 35.4671C51.0122 35.6124 51.1799 35.7095 51.365 35.7408C51.321 35.8102 51.2657 35.8719 51.2015 35.9232L50.9835 36.0692H50.8924H50.7289V35.8503C50.7289 35.8503 50.7289 35.5948 50.7289 35.6861V35.5766L50.8924 35.4671ZM50.0927 37.5289H50.2017H50.4198C50.22 38.3499 49.2747 39.0249 48.6024 39.4628L48.4388 39.5905C49.1385 39.0331 49.7089 38.3297 50.111 37.5289H50.0927ZM51.147 41.689C50.002 42.4229 48.7838 43.0345 47.5119 43.5134C47.4398 43.3873 47.361 43.2655 47.2755 43.1487C49.1571 42.6678 50.8883 41.7203 52.3103 40.3935C52.0072 40.8893 51.6196 41.3279 51.1649 41.689H51.147ZM51.8194 37.1275C52.0004 36.9887 52.1651 36.8295 52.3103 36.6531C52.3103 36.6531 52.3103 36.799 52.3103 36.8903C52.2506 36.9499 52.2035 37.0211 52.1726 37.0995C52.1412 37.1779 52.1263 37.262 52.1285 37.3463C52.1285 39.5177 50.1289 40.6854 48.2204 41.4336C49.8564 40.4118 51.6921 39.1891 51.6921 37.2552L51.8194 37.1275Z"/>
</mask>
<path d="M54.6911 13.025C54.6672 12.9305 54.6198 12.8437 54.5533 12.7723C54.4872 12.701 54.404 12.6474 54.3117 12.6166C54.2195 12.5857 54.1214 12.5786 54.0258 12.5957C53.9298 12.6129 53.8402 12.6539 53.7641 12.7148C53.8813 12.4653 53.9843 12.2095 54.0732 11.9485C54.084 11.8508 54.0732 11.7518 54.0422 11.6587C54.0108 11.5655 53.9597 11.4803 53.8921 11.4091C53.8246 11.3378 53.7424 11.2822 53.6513 11.2462C53.5602 11.2101 53.462 11.1945 53.3642 11.2004C42.6962 11.77 32.066 12.915 21.5202 14.6306C16.3582 15.3787 11.269 16.0538 6.14335 16.8383C4.7438 17.0573 1.1995 16.8383 0.163477 18.0061C0.0852171 18.0956 0.033485 18.2054 0.0141301 18.323C-0.00522481 18.4405 0.00856927 18.5612 0.0539527 18.6713C0.0993362 18.7814 0.174499 18.8765 0.270942 18.946C0.367386 19.0155 0.481262 19.0564 0.599698 19.0643C0.963216 20.5239 4.32578 21.9106 5.19822 22.385C6.70682 23.2243 8.25175 23.9906 9.8149 24.7204C10.8604 25.3515 12.0124 25.7844 13.2138 25.9976C13.3955 27.4208 13.2138 28.8987 13.5591 30.3219C14.1044 32.9674 15.2677 35.3394 15.195 38.1128C15.1847 38.2129 15.2054 38.314 15.2542 38.4021C15.3029 38.4902 15.3774 38.5612 15.4676 38.6052C15.3929 38.7239 15.3682 38.8673 15.3989 39.0043C15.4296 39.141 15.5131 39.2601 15.6312 39.3351C16.9209 40.0127 18.3836 40.286 19.8298 40.1198C23.465 40.1198 26.8275 41.0868 30.3719 41.2876C33.9134 41.3339 37.449 40.9852 40.9139 40.2475C42.9497 39.919 45.3488 40.0833 46.8936 38.5141C46.9825 38.4286 47.0478 38.3215 47.0829 38.2031C47.118 38.0848 47.1217 37.9594 47.0937 37.8391C48.2387 35.5948 47.1844 30.778 47.2027 28.7162C47.2027 25.6327 48.366 22.6404 48.275 19.5934C48.275 19.5934 48.275 19.484 48.275 19.4292C48.4392 19.4908 48.6199 19.4908 48.7842 19.4292C49.9161 18.5924 50.8017 17.4639 51.3467 16.1633C51.965 15.0503 52.8375 14.3387 53.4736 13.3169C53.4647 13.3774 53.4647 13.4389 53.4736 13.4994C54.6926 17.3352 54.8184 21.4369 53.8369 25.3408C53.0734 28.479 52.2375 33.2594 49.2564 35.1022C49.1829 35.146 49.1191 35.2053 49.0698 35.276C49.0209 35.3466 48.9873 35.427 48.972 35.5118C48.9563 35.5965 48.9593 35.6836 48.9802 35.7672C49.0011 35.8508 49.0395 35.9289 49.0929 35.9962C49.0929 35.9962 49.0929 36.0875 49.0929 36.1422C49.0504 36.6835 48.888 37.2085 48.6177 37.679C48.347 38.149 47.9755 38.553 47.5298 38.861C46.9302 39.4445 46.0211 39.7364 45.4761 40.3569C44.2583 41.7435 45.6941 42.7287 46.294 44.0062C46.3407 44.1153 46.4161 44.2101 46.5121 44.2799C46.471 44.4109 46.4695 44.5513 46.5083 44.6831C46.5468 44.8149 46.6237 44.9325 46.7286 45.0202C46.8339 45.1083 46.9627 45.1628 47.0989 45.1774C47.2352 45.1916 47.3726 45.1651 47.4936 45.1009C49.4976 44.2889 51.3669 43.1752 53.0372 41.7983C53.6573 41.0185 54.0366 40.0735 54.1277 39.0797C54.3095 37.8391 53.5826 36.9997 53.5643 35.832C53.5662 35.7411 53.5464 35.651 53.5061 35.5694C53.4662 35.4879 53.4068 35.4173 53.3336 35.3635C53.2604 35.3098 53.1757 35.2746 53.0861 35.2609C52.9965 35.2471 52.905 35.2553 52.8192 35.2847C52.7464 35.0756 52.6149 34.8921 52.441 34.7561C52.267 34.6202 52.0572 34.5376 51.8377 34.5183C53.3243 32.1075 54.3532 29.4414 54.8729 26.6545C55.5038 24.4533 55.8939 22.1897 56.0362 19.9036C55.9791 17.5508 55.5243 15.2249 54.6911 13.025ZM43.313 38.569C38.3331 39.6662 33.2247 40.0594 28.1362 39.7364C25.9187 39.4994 23.7558 39.0249 21.5383 38.861C20.1851 38.9046 18.8305 38.8498 17.4851 38.6967C21.7809 37.6629 26.132 36.8771 30.5173 36.3429C33.1559 36.1146 35.8106 36.1513 38.4421 36.4524C39.5688 36.5801 40.6776 36.6713 41.8043 36.7443C42.9314 36.8173 46.9847 37.9668 43.313 38.569ZM46.6756 22.3485C46.3038 24.1527 46.0667 25.9825 45.9666 27.8222C45.9666 29.2636 46.6394 34.1534 46.185 36.4706C43.5314 34.9562 39.4598 35.2847 36.479 35.0292C29.6812 34.4271 23.1378 36.2882 16.4854 37.6383C16.3484 35.33 15.8706 33.0549 15.0677 30.8875C14.6839 29.3861 14.5065 27.8392 14.5406 26.2896C14.5406 25.1218 14.1044 24.0271 13.9953 22.8776C14.0999 22.8478 14.1928 22.7861 14.2611 22.7012C14.3295 22.6163 14.3699 22.5122 14.377 22.4033C14.5406 20.3232 23.0106 19.0825 24.5919 18.7541C29.8281 17.7601 35.1488 17.2835 40.4775 17.331C43.7673 17.3127 47.5119 18.298 46.6756 22.4033V22.3485ZM50.5471 14.9043C49.9904 16.2187 49.1235 17.3772 48.0207 18.2797L47.8934 18.4987C46.9044 17.5196 45.6318 16.8808 44.2583 16.6741C41.0775 16.0147 37.8097 15.8914 34.5887 16.3092C30.7291 16.4905 26.8921 17.0032 23.1197 17.8418C20.9204 18.3527 14.2498 19.0096 13.1047 21.6734C12.9816 21.6955 12.8671 21.7516 12.774 21.8354C12.6809 21.9192 12.6128 22.0274 12.5776 22.1478C12.5847 22.9951 12.7133 23.8369 12.9593 24.6475C11.787 24.2294 10.6553 23.7042 9.57862 23.0783C8.66981 22.6587 7.761 22.2026 6.88856 21.7282C6.01612 21.2538 5.07099 20.7247 4.10764 20.1955C3.63508 19.9766 1.96289 18.6082 1.81749 19.0643C1.86334 18.922 1.86334 18.7688 1.81749 18.6264C2.50817 18.4987 3.50785 18.4987 3.88954 18.4987C5.70715 18.2615 7.52472 17.9696 9.34233 17.6959C14.2498 16.9843 19.1755 16.3092 24.083 15.6159C33.4778 14.1251 42.9411 13.1082 52.4372 12.5689C51.9284 13.5176 51.147 13.9738 50.5471 14.959V14.9043ZM50.8924 35.4671C51.0122 35.6124 51.1799 35.7095 51.365 35.7408C51.321 35.8102 51.2657 35.8719 51.2015 35.9232L50.9835 36.0692H50.8924H50.7289V35.8503C50.7289 35.8503 50.7289 35.5948 50.7289 35.6861V35.5766L50.8924 35.4671ZM50.0927 37.5289H50.2017H50.4198C50.22 38.3499 49.2747 39.0249 48.6024 39.4628L48.4388 39.5905C49.1385 39.0331 49.7089 38.3297 50.111 37.5289H50.0927ZM51.147 41.689C50.002 42.4229 48.7838 43.0345 47.5119 43.5134C47.4398 43.3873 47.361 43.2655 47.2755 43.1487C49.1571 42.6678 50.8883 41.7203 52.3103 40.3935C52.0072 40.8893 51.6196 41.3279 51.1649 41.689H51.147ZM51.8194 37.1275C52.0004 36.9887 52.1651 36.8295 52.3103 36.6531C52.3103 36.6531 52.3103 36.799 52.3103 36.8903C52.2506 36.9499 52.2035 37.0211 52.1726 37.0995C52.1412 37.1779 52.1263 37.262 52.1285 37.3463C52.1285 39.5177 50.1289 40.6854 48.2204 41.4336C49.8564 40.4118 51.6921 39.1891 51.6921 37.2552L51.8194 37.1275Z" fill="#231F20"/>
<path d="M54.6911 13.025C54.6672 12.9305 54.6198 12.8437 54.5533 12.7723C54.4872 12.701 54.404 12.6474 54.3117 12.6166C54.2195 12.5857 54.1214 12.5786 54.0258 12.5957C53.9298 12.6129 53.8402 12.6539 53.7641 12.7148C53.8813 12.4653 53.9843 12.2095 54.0732 11.9485C54.084 11.8508 54.0732 11.7518 54.0422 11.6587C54.0108 11.5655 53.9597 11.4803 53.8921 11.4091C53.8246 11.3378 53.7424 11.2822 53.6513 11.2462C53.5602 11.2101 53.462 11.1945 53.3642 11.2004C42.6962 11.77 32.066 12.915 21.5202 14.6306C16.3582 15.3787 11.269 16.0538 6.14335 16.8383C4.7438 17.0573 1.1995 16.8383 0.163477 18.0061C0.0852171 18.0956 0.033485 18.2054 0.0141301 18.323C-0.00522481 18.4405 0.00856927 18.5612 0.0539527 18.6713C0.0993362 18.7814 0.174499 18.8765 0.270942 18.946C0.367386 19.0155 0.481262 19.0564 0.599698 19.0643C0.963216 20.5239 4.32578 21.9106 5.19822 22.385C6.70682 23.2243 8.25175 23.9906 9.8149 24.7204C10.8604 25.3515 12.0124 25.7844 13.2138 25.9976C13.3955 27.4208 13.2138 28.8987 13.5591 30.3219C14.1044 32.9674 15.2677 35.3394 15.195 38.1128C15.1847 38.2129 15.2054 38.314 15.2542 38.4021C15.3029 38.4902 15.3774 38.5612 15.4676 38.6052C15.3929 38.7239 15.3682 38.8673 15.3989 39.0043C15.4296 39.141 15.5131 39.2601 15.6312 39.3351C16.9209 40.0127 18.3836 40.286 19.8298 40.1198C23.465 40.1198 26.8275 41.0868 30.3719 41.2876C33.9134 41.3339 37.449 40.9852 40.9139 40.2475C42.9497 39.919 45.3488 40.0833 46.8936 38.5141C46.9825 38.4286 47.0478 38.3215 47.0829 38.2031C47.118 38.0848 47.1217 37.9594 47.0937 37.8391C48.2387 35.5948 47.1844 30.778 47.2027 28.7162C47.2027 25.6327 48.366 22.6404 48.275 19.5934C48.275 19.5934 48.275 19.484 48.275 19.4292C48.4392 19.4908 48.6199 19.4908 48.7842 19.4292C49.9161 18.5924 50.8017 17.4639 51.3467 16.1633C51.965 15.0503 52.8375 14.3387 53.4736 13.3169C53.4647 13.3774 53.4647 13.4389 53.4736 13.4994C54.6926 17.3352 54.8184 21.4369 53.8369 25.3408C53.0734 28.479 52.2375 33.2594 49.2564 35.1022C49.1829 35.146 49.1191 35.2053 49.0698 35.276C49.0209 35.3466 48.9873 35.427 48.972 35.5118C48.9563 35.5965 48.9593 35.6836 48.9802 35.7672C49.0011 35.8508 49.0395 35.9289 49.0929 35.9962C49.0929 35.9962 49.0929 36.0875 49.0929 36.1422C49.0504 36.6835 48.888 37.2085 48.6177 37.679C48.347 38.149 47.9755 38.553 47.5298 38.861C46.9302 39.4445 46.0211 39.7364 45.4761 40.3569C44.2583 41.7435 45.6941 42.7287 46.294 44.0062C46.3407 44.1153 46.4161 44.2101 46.5121 44.2799C46.471 44.4109 46.4695 44.5513 46.5083 44.6831C46.5468 44.8149 46.6237 44.9325 46.7286 45.0202C46.8339 45.1083 46.9627 45.1628 47.0989 45.1774C47.2352 45.1916 47.3726 45.1651 47.4936 45.1009C49.4976 44.2889 51.3669 43.1752 53.0372 41.7983C53.6573 41.0185 54.0366 40.0735 54.1277 39.0797C54.3095 37.8391 53.5826 36.9997 53.5643 35.832C53.5662 35.7411 53.5464 35.651 53.5061 35.5694C53.4662 35.4879 53.4068 35.4173 53.3336 35.3635C53.2604 35.3098 53.1757 35.2746 53.0861 35.2609C52.9965 35.2471 52.905 35.2553 52.8192 35.2847C52.7464 35.0756 52.6149 34.8921 52.441 34.7561C52.267 34.6202 52.0572 34.5376 51.8377 34.5183C53.3243 32.1075 54.3532 29.4414 54.8729 26.6545C55.5038 24.4533 55.8939 22.1897 56.0362 19.9036C55.9791 17.5508 55.5243 15.2249 54.6911 13.025ZM43.313 38.569C38.3331 39.6662 33.2247 40.0594 28.1362 39.7364C25.9187 39.4994 23.7558 39.0249 21.5383 38.861C20.1851 38.9046 18.8305 38.8498 17.4851 38.6967C21.7809 37.6629 26.132 36.8771 30.5173 36.3429C33.1559 36.1146 35.8106 36.1513 38.4421 36.4524C39.5688 36.5801 40.6776 36.6713 41.8043 36.7443C42.9314 36.8173 46.9847 37.9668 43.313 38.569ZM46.6756 22.3485C46.3038 24.1527 46.0667 25.9825 45.9666 27.8222C45.9666 29.2636 46.6394 34.1534 46.185 36.4706C43.5314 34.9562 39.4598 35.2847 36.479 35.0292C29.6812 34.4271 23.1378 36.2882 16.4854 37.6383C16.3484 35.33 15.8706 33.0549 15.0677 30.8875C14.6839 29.3861 14.5065 27.8392 14.5406 26.2896C14.5406 25.1218 14.1044 24.0271 13.9953 22.8776C14.0999 22.8478 14.1928 22.7861 14.2611 22.7012C14.3295 22.6163 14.3699 22.5122 14.377 22.4033C14.5406 20.3232 23.0106 19.0825 24.5919 18.7541C29.8281 17.7601 35.1488 17.2835 40.4775 17.331C43.7673 17.3127 47.5119 18.298 46.6756 22.4033V22.3485ZM50.5471 14.9043C49.9904 16.2187 49.1235 17.3772 48.0207 18.2797L47.8934 18.4987C46.9044 17.5196 45.6318 16.8808 44.2583 16.6741C41.0775 16.0147 37.8097 15.8914 34.5887 16.3092C30.7291 16.4905 26.8921 17.0032 23.1197 17.8418C20.9204 18.3527 14.2498 19.0096 13.1047 21.6734C12.9816 21.6955 12.8671 21.7516 12.774 21.8354C12.6809 21.9192 12.6128 22.0274 12.5776 22.1478C12.5847 22.9951 12.7133 23.8369 12.9593 24.6475C11.787 24.2294 10.6553 23.7042 9.57862 23.0783C8.66981 22.6587 7.761 22.2026 6.88856 21.7282C6.01612 21.2538 5.07099 20.7247 4.10764 20.1955C3.63508 19.9766 1.96289 18.6082 1.81749 19.0643C1.86334 18.922 1.86334 18.7688 1.81749 18.6264C2.50817 18.4987 3.50785 18.4987 3.88954 18.4987C5.70715 18.2615 7.52472 17.9696 9.34233 17.6959C14.2498 16.9843 19.1755 16.3092 24.083 15.6159C33.4778 14.1251 42.9411 13.1082 52.4372 12.5689C51.9284 13.5176 51.147 13.9738 50.5471 14.959V14.9043ZM50.8924 35.4671C51.0122 35.6124 51.1799 35.7095 51.365 35.7408C51.321 35.8102 51.2657 35.8719 51.2015 35.9232L50.9835 36.0692H50.8924H50.7289V35.8503C50.7289 35.8503 50.7289 35.5948 50.7289 35.6861V35.5766L50.8924 35.4671ZM50.0927 37.5289H50.2017H50.4198C50.22 38.3499 49.2747 39.0249 48.6024 39.4628L48.4388 39.5905C49.1385 39.0331 49.7089 38.3297 50.111 37.5289H50.0927ZM51.147 41.689C50.002 42.4229 48.7838 43.0345 47.5119 43.5134C47.4398 43.3873 47.361 43.2655 47.2755 43.1487C49.1571 42.6678 50.8883 41.7203 52.3103 40.3935C52.0072 40.8893 51.6196 41.3279 51.1649 41.689H51.147ZM51.8194 37.1275C52.0004 36.9887 52.1651 36.8295 52.3103 36.6531C52.3103 36.6531 52.3103 36.799 52.3103 36.8903C52.2506 36.9499 52.2035 37.0211 52.1726 37.0995C52.1412 37.1779 52.1263 37.262 52.1285 37.3463C52.1285 39.5177 50.1289 40.6854 48.2204 41.4336C49.8564 40.4118 51.6921 39.1891 51.6921 37.2552L51.8194 37.1275Z" stroke="#231F20" mask="url(#path-1-outside-1)"/>
</g>
<defs>
<clipPath id="clip0">
<rect width="56" height="56" fill="white"/>
</clipPath>
</defs>
</svg>
