<svg width="56" height="56" viewBox="0 0 56 56" fill="none" xmlns="http://www.w3.org/2000/svg">
<g clip-path="url(#clip0)">
<mask id="path-1-outside-1" maskUnits="userSpaceOnUse" x="0.866699" y="-0.992188" width="54" height="58" fill="black">
<rect fill="white" x="0.866699" y="-0.992188" width="54" height="58"/>
<path d="M46.4808 40.5794C47.5612 38.2868 48.5196 35.9738 49.7023 33.7013C51.9363 29.7966 53.3255 25.4702 53.7806 20.9999C53.8784 19.1761 53.5625 17.3538 52.8569 15.6679C52.151 13.982 51.0728 12.4757 49.7023 11.2608C48.3396 10.0803 46.7709 9.15874 45.0737 8.54191C43.0349 7.7506 40.7102 8.54192 38.7528 7.77091C38.6199 7.73145 38.478 7.73145 38.3451 7.77091C38.2768 7.67138 38.2017 7.57648 38.1207 7.48684C38.2215 7.44741 38.3111 7.3844 38.3821 7.30316C38.453 7.22192 38.5034 7.12485 38.5284 7.02017C38.8327 6.35974 39.0985 5.68229 39.3236 4.99118C39.4091 4.81877 39.4225 4.6199 39.3617 4.4376C39.3005 4.2553 39.1698 4.10429 38.9973 4.01726C38.3653 3.71293 37.713 3.42887 36.9584 3.16511C36.5302 -0.121853 31.4123 -0.872577 29.2305 1.05496C26.7021 0.811481 25.8865 2.53612 25.1524 4.768C23.6017 9.35242 21.8187 13.8558 19.8102 18.2608C17.6787 22.1309 15.9567 26.2107 14.6718 30.4347C14.6183 30.6676 14.6238 30.91 14.6879 31.1402C14.752 31.3705 14.8726 31.5812 15.0388 31.7535C14.8527 32.197 14.7568 32.6729 14.7568 33.1535C14.7568 33.6342 14.8527 34.11 15.0388 34.5535C15.1694 34.8208 15.3573 35.0563 15.5894 35.2434C15.4635 35.5097 15.4066 35.8031 15.4238 36.0969C15.4409 36.3908 15.5317 36.6756 15.6877 36.9257C15.8437 37.1757 16.0601 37.383 16.3172 37.5286C16.5742 37.6742 16.8637 37.7533 17.1594 37.7593C18.077 37.881 19.4839 37.6577 19.8306 36.6637C20.3572 36.7527 20.8979 36.6325 21.3364 36.3289C21.7749 36.0254 22.0762 35.5627 22.1754 35.0405C22.8556 35.2715 23.582 35.335 24.2923 35.2254C25.0025 35.1159 25.6755 34.8366 26.2535 34.4115C27.3054 32.9961 28.2138 31.4804 28.9654 29.8868C30.1277 27.8578 31.5346 25.8289 32.6969 23.7999C34.5905 20.346 36.1604 16.7259 37.3868 12.9854C39.9964 13.0013 42.5402 13.8004 44.6862 15.2782C48.5808 18.139 46.9292 24.1042 45.5631 27.8376C44.2785 30.9389 42.8217 33.9667 41.1996 36.9071C39.7925 39.7275 38.6714 42.9942 36.9992 45.6519C36.8954 45.709 36.8076 45.7908 36.7435 45.8901C36.6794 45.989 36.6411 46.1025 36.6322 46.2201C33.3493 46.2201 30.0665 46.5449 27.6604 46.6461C27.6604 45.6318 27.3138 44.3333 26.0904 44.1911C23.2326 43.9883 20.3639 43.9883 17.5061 44.1911C15.0796 44.1911 8.39159 43.3186 8.51394 47.1128C4.74174 48.0058 1.98904 50.055 1.8667 54.2349C1.8667 54.7418 2.27451 54.9244 2.68231 54.8434C2.7473 54.9393 2.83552 55.0177 2.93886 55.0707C3.04219 55.1241 3.15732 55.1503 3.27363 55.1477C11.654 55.1477 20.0549 55.6957 28.4556 55.9593C32.3356 56.0272 36.2163 55.8712 40.0781 55.4926C42.5656 55.2694 45.8689 56 48.2343 55.107C48.3721 55.0569 48.4912 54.9658 48.5752 54.846C48.6588 54.7262 48.7036 54.5835 48.7032 54.4376C48.8309 54.376 48.9369 54.2767 49.006 54.1535C49.0754 54.0299 49.1049 53.8884 49.0908 53.7477C48.9844 52.2267 48.402 50.7767 47.4257 49.6014C46.4494 48.4262 45.1278 47.5843 43.6464 47.1942C44.2714 44.8668 45.2256 42.6395 46.4808 40.5794ZM35.0417 2.3738C33.9203 2.02887 32.7988 1.72452 31.6977 1.48105C32.2868 1.37663 32.8917 1.40248 33.4697 1.55676C34.0476 1.71105 34.5843 1.98999 35.0417 2.3738ZM17.6284 36.1361C17.4074 36.1353 17.1901 36.0795 16.9963 35.9738C16.9745 35.9079 16.9745 35.8368 16.9963 35.7709L17.6896 36.0144L18.2401 36.197C18.0342 36.216 17.8265 36.1953 17.6284 36.1361ZM18.1789 34.4926C17.6446 34.3766 17.1297 34.1853 16.6497 33.9245C16.3635 33.5098 16.2535 32.9993 16.3438 32.5042C17.4857 33.1129 18.8926 33.539 19.4839 33.8637C19.9456 34.0921 20.4225 34.2887 20.9113 34.4521C20.5238 35.7303 18.9742 34.8173 18.1789 34.4926ZM34.0834 12.1738C33.0027 12.3564 29.6587 11.8492 29.6587 10.1448C29.9442 5.9854 36.6934 5.43757 37.4069 9.57668C37.713 11.2202 35.368 11.9303 34.0834 12.1738ZM37.1012 6.51292C36.2108 5.88218 35.1962 5.4465 34.1242 5.23467C33.4312 5.12633 32.7231 5.16086 32.0441 5.33621C31.3651 5.51157 30.7296 5.82394 30.177 6.25394C29.6244 6.68395 29.1665 7.22244 28.8318 7.8359C28.4971 8.4494 28.2927 9.1248 28.2314 9.82017C27.8439 12.9245 32.4521 14.2028 35.7758 13.168C34.1933 17.6888 32.1432 22.0338 29.6587 26.1332C28.8635 27.4521 27.9867 28.6897 27.2322 30.0289C26.0496 32.0578 25.4787 33.6811 22.6852 33.3361C21.0118 33.001 19.415 32.3613 17.9751 31.4492C16.3642 30.597 15.936 30.3129 16.9759 28.2839C19.8306 22.3593 22.3386 16.11 24.6835 10.0231C25.7234 7.32451 26.4166 2.13032 30.1073 2.65786C32.7103 3.12518 35.2492 3.8947 37.672 4.9506C37.4887 5.43757 37.2847 5.94482 37.1012 6.45207V6.51292ZM25.9884 46.6666C22.1143 46.6666 15.6098 45.7942 10.3083 46.6666C12.592 44.9624 24.6223 44.7391 25.9884 46.6666ZM47.5612 53.7682C46.4016 53.8787 45.2342 53.8787 44.0746 53.7682C42.2393 53.7682 40.4249 53.9302 38.6102 54.0725C34.7727 54.4036 30.9192 54.5119 27.0691 54.3969C19.1781 54.1535 11.2463 53.6868 3.37558 53.6259C3.88535 47.9042 11.2463 47.9853 15.6098 48.0058C19.4024 48.0058 23.2154 48.0058 27.0284 48.0058C32.5949 48.107 46.6029 45.1853 47.5612 53.7682ZM42.1986 46.7883C40.9118 46.502 39.6014 46.3321 38.2839 46.281C40.6082 42.507 42.2192 38.0027 44.2378 34.1071C46.5562 30.119 47.995 25.6855 48.4587 21.1013C48.7645 14.8318 43.4833 12.1738 38.1614 11.6057C38.4545 11.2295 38.6755 10.8032 38.814 10.3477C38.9264 9.98007 38.9611 9.59315 38.9159 9.21149C39.4315 9.25312 39.9497 9.25312 40.4656 9.21149C43.16 9.20996 45.7838 10.0707 47.9487 11.6666C52.027 14.5274 52.7812 19.6202 51.8433 24.226C50.6584 28.485 48.9313 32.5761 46.7052 36.3999C45.1554 39.5042 42.7493 43.2783 42.1986 46.7883Z"/>
</mask>
<path d="M46.4808 40.5794C47.5612 38.2868 48.5196 35.9738 49.7023 33.7013C51.9363 29.7966 53.3255 25.4702 53.7806 20.9999C53.8784 19.1761 53.5625 17.3538 52.8569 15.6679C52.151 13.982 51.0728 12.4757 49.7023 11.2608C48.3396 10.0803 46.7709 9.15874 45.0737 8.54191C43.0349 7.7506 40.7102 8.54192 38.7528 7.77091C38.6199 7.73145 38.478 7.73145 38.3451 7.77091C38.2768 7.67138 38.2017 7.57648 38.1207 7.48684C38.2215 7.44741 38.3111 7.3844 38.3821 7.30316C38.453 7.22192 38.5034 7.12485 38.5284 7.02017C38.8327 6.35974 39.0985 5.68229 39.3236 4.99118C39.4091 4.81877 39.4225 4.6199 39.3617 4.4376C39.3005 4.2553 39.1698 4.10429 38.9973 4.01726C38.3653 3.71293 37.713 3.42887 36.9584 3.16511C36.5302 -0.121853 31.4123 -0.872577 29.2305 1.05496C26.7021 0.811481 25.8865 2.53612 25.1524 4.768C23.6017 9.35242 21.8187 13.8558 19.8102 18.2608C17.6787 22.1309 15.9567 26.2107 14.6718 30.4347C14.6183 30.6676 14.6238 30.91 14.6879 31.1402C14.752 31.3705 14.8726 31.5812 15.0388 31.7535C14.8527 32.197 14.7568 32.6729 14.7568 33.1535C14.7568 33.6342 14.8527 34.11 15.0388 34.5535C15.1694 34.8208 15.3573 35.0563 15.5894 35.2434C15.4635 35.5097 15.4066 35.8031 15.4238 36.0969C15.4409 36.3908 15.5317 36.6756 15.6877 36.9257C15.8437 37.1757 16.0601 37.383 16.3172 37.5286C16.5742 37.6742 16.8637 37.7533 17.1594 37.7593C18.077 37.881 19.4839 37.6577 19.8306 36.6637C20.3572 36.7527 20.8979 36.6325 21.3364 36.3289C21.7749 36.0254 22.0762 35.5627 22.1754 35.0405C22.8556 35.2715 23.582 35.335 24.2923 35.2254C25.0025 35.1159 25.6755 34.8366 26.2535 34.4115C27.3054 32.9961 28.2138 31.4804 28.9654 29.8868C30.1277 27.8578 31.5346 25.8289 32.6969 23.7999C34.5905 20.346 36.1604 16.7259 37.3868 12.9854C39.9964 13.0013 42.5402 13.8004 44.6862 15.2782C48.5808 18.139 46.9292 24.1042 45.5631 27.8376C44.2785 30.9389 42.8217 33.9667 41.1996 36.9071C39.7925 39.7275 38.6714 42.9942 36.9992 45.6519C36.8954 45.709 36.8076 45.7908 36.7435 45.8901C36.6794 45.989 36.6411 46.1025 36.6322 46.2201C33.3493 46.2201 30.0665 46.5449 27.6604 46.6461C27.6604 45.6318 27.3138 44.3333 26.0904 44.1911C23.2326 43.9883 20.3639 43.9883 17.5061 44.1911C15.0796 44.1911 8.39159 43.3186 8.51394 47.1128C4.74174 48.0058 1.98904 50.055 1.8667 54.2349C1.8667 54.7418 2.27451 54.9244 2.68231 54.8434C2.7473 54.9393 2.83552 55.0177 2.93886 55.0707C3.04219 55.1241 3.15732 55.1503 3.27363 55.1477C11.654 55.1477 20.0549 55.6957 28.4556 55.9593C32.3356 56.0272 36.2163 55.8712 40.0781 55.4926C42.5656 55.2694 45.8689 56 48.2343 55.107C48.3721 55.0569 48.4912 54.9658 48.5752 54.846C48.6588 54.7262 48.7036 54.5835 48.7032 54.4376C48.8309 54.376 48.9369 54.2767 49.006 54.1535C49.0754 54.0299 49.1049 53.8884 49.0908 53.7477C48.9844 52.2267 48.402 50.7767 47.4257 49.6014C46.4494 48.4262 45.1278 47.5843 43.6464 47.1942C44.2714 44.8668 45.2256 42.6395 46.4808 40.5794ZM35.0417 2.3738C33.9203 2.02887 32.7988 1.72452 31.6977 1.48105C32.2868 1.37663 32.8917 1.40248 33.4697 1.55676C34.0476 1.71105 34.5843 1.98999 35.0417 2.3738ZM17.6284 36.1361C17.4074 36.1353 17.1901 36.0795 16.9963 35.9738C16.9745 35.9079 16.9745 35.8368 16.9963 35.7709L17.6896 36.0144L18.2401 36.197C18.0342 36.216 17.8265 36.1953 17.6284 36.1361ZM18.1789 34.4926C17.6446 34.3766 17.1297 34.1853 16.6497 33.9245C16.3635 33.5098 16.2535 32.9993 16.3438 32.5042C17.4857 33.1129 18.8926 33.539 19.4839 33.8637C19.9456 34.0921 20.4225 34.2887 20.9113 34.4521C20.5238 35.7303 18.9742 34.8173 18.1789 34.4926ZM34.0834 12.1738C33.0027 12.3564 29.6587 11.8492 29.6587 10.1448C29.9442 5.9854 36.6934 5.43757 37.4069 9.57668C37.713 11.2202 35.368 11.9303 34.0834 12.1738ZM37.1012 6.51292C36.2108 5.88218 35.1962 5.4465 34.1242 5.23467C33.4312 5.12633 32.7231 5.16086 32.0441 5.33621C31.3651 5.51157 30.7296 5.82394 30.177 6.25394C29.6244 6.68395 29.1665 7.22244 28.8318 7.8359C28.4971 8.4494 28.2927 9.1248 28.2314 9.82017C27.8439 12.9245 32.4521 14.2028 35.7758 13.168C34.1933 17.6888 32.1432 22.0338 29.6587 26.1332C28.8635 27.4521 27.9867 28.6897 27.2322 30.0289C26.0496 32.0578 25.4787 33.6811 22.6852 33.3361C21.0118 33.001 19.415 32.3613 17.9751 31.4492C16.3642 30.597 15.936 30.3129 16.9759 28.2839C19.8306 22.3593 22.3386 16.11 24.6835 10.0231C25.7234 7.32451 26.4166 2.13032 30.1073 2.65786C32.7103 3.12518 35.2492 3.8947 37.672 4.9506C37.4887 5.43757 37.2847 5.94482 37.1012 6.45207V6.51292ZM25.9884 46.6666C22.1143 46.6666 15.6098 45.7942 10.3083 46.6666C12.592 44.9624 24.6223 44.7391 25.9884 46.6666ZM47.5612 53.7682C46.4016 53.8787 45.2342 53.8787 44.0746 53.7682C42.2393 53.7682 40.4249 53.9302 38.6102 54.0725C34.7727 54.4036 30.9192 54.5119 27.0691 54.3969C19.1781 54.1535 11.2463 53.6868 3.37558 53.6259C3.88535 47.9042 11.2463 47.9853 15.6098 48.0058C19.4024 48.0058 23.2154 48.0058 27.0284 48.0058C32.5949 48.107 46.6029 45.1853 47.5612 53.7682ZM42.1986 46.7883C40.9118 46.502 39.6014 46.3321 38.2839 46.281C40.6082 42.507 42.2192 38.0027 44.2378 34.1071C46.5562 30.119 47.995 25.6855 48.4587 21.1013C48.7645 14.8318 43.4833 12.1738 38.1614 11.6057C38.4545 11.2295 38.6755 10.8032 38.814 10.3477C38.9264 9.98007 38.9611 9.59315 38.9159 9.21149C39.4315 9.25312 39.9497 9.25312 40.4656 9.21149C43.16 9.20996 45.7838 10.0707 47.9487 11.6666C52.027 14.5274 52.7812 19.6202 51.8433 24.226C50.6584 28.485 48.9313 32.5761 46.7052 36.3999C45.1554 39.5042 42.7493 43.2783 42.1986 46.7883Z" fill="#231F20"/>
<path d="M46.4808 40.5794C47.5612 38.2868 48.5196 35.9738 49.7023 33.7013C51.9363 29.7966 53.3255 25.4702 53.7806 20.9999C53.8784 19.1761 53.5625 17.3538 52.8569 15.6679C52.151 13.982 51.0728 12.4757 49.7023 11.2608C48.3396 10.0803 46.7709 9.15874 45.0737 8.54191C43.0349 7.7506 40.7102 8.54192 38.7528 7.77091C38.6199 7.73145 38.478 7.73145 38.3451 7.77091C38.2768 7.67138 38.2017 7.57648 38.1207 7.48684C38.2215 7.44741 38.3111 7.3844 38.3821 7.30316C38.453 7.22192 38.5034 7.12485 38.5284 7.02017C38.8327 6.35974 39.0985 5.68229 39.3236 4.99118C39.4091 4.81877 39.4225 4.6199 39.3617 4.4376C39.3005 4.2553 39.1698 4.10429 38.9973 4.01726C38.3653 3.71293 37.713 3.42887 36.9584 3.16511C36.5302 -0.121853 31.4123 -0.872577 29.2305 1.05496C26.7021 0.811481 25.8865 2.53612 25.1524 4.768C23.6017 9.35242 21.8187 13.8558 19.8102 18.2608C17.6787 22.1309 15.9567 26.2107 14.6718 30.4347C14.6183 30.6676 14.6238 30.91 14.6879 31.1402C14.752 31.3705 14.8726 31.5812 15.0388 31.7535C14.8527 32.197 14.7568 32.6729 14.7568 33.1535C14.7568 33.6342 14.8527 34.11 15.0388 34.5535C15.1694 34.8208 15.3573 35.0563 15.5894 35.2434C15.4635 35.5097 15.4066 35.8031 15.4238 36.0969C15.4409 36.3908 15.5317 36.6756 15.6877 36.9257C15.8437 37.1757 16.0601 37.383 16.3172 37.5286C16.5742 37.6742 16.8637 37.7533 17.1594 37.7593C18.077 37.881 19.4839 37.6577 19.8306 36.6637C20.3572 36.7527 20.8979 36.6325 21.3364 36.3289C21.7749 36.0254 22.0762 35.5627 22.1754 35.0405C22.8556 35.2715 23.582 35.335 24.2923 35.2254C25.0025 35.1159 25.6755 34.8366 26.2535 34.4115C27.3054 32.9961 28.2138 31.4804 28.9654 29.8868C30.1277 27.8578 31.5346 25.8289 32.6969 23.7999C34.5905 20.346 36.1604 16.7259 37.3868 12.9854C39.9964 13.0013 42.5402 13.8004 44.6862 15.2782C48.5808 18.139 46.9292 24.1042 45.5631 27.8376C44.2785 30.9389 42.8217 33.9667 41.1996 36.9071C39.7925 39.7275 38.6714 42.9942 36.9992 45.6519C36.8954 45.709 36.8076 45.7908 36.7435 45.8901C36.6794 45.989 36.6411 46.1025 36.6322 46.2201C33.3493 46.2201 30.0665 46.5449 27.6604 46.6461C27.6604 45.6318 27.3138 44.3333 26.0904 44.1911C23.2326 43.9883 20.3639 43.9883 17.5061 44.1911C15.0796 44.1911 8.39159 43.3186 8.51394 47.1128C4.74174 48.0058 1.98904 50.055 1.8667 54.2349C1.8667 54.7418 2.27451 54.9244 2.68231 54.8434C2.7473 54.9393 2.83552 55.0177 2.93886 55.0707C3.04219 55.1241 3.15732 55.1503 3.27363 55.1477C11.654 55.1477 20.0549 55.6957 28.4556 55.9593C32.3356 56.0272 36.2163 55.8712 40.0781 55.4926C42.5656 55.2694 45.8689 56 48.2343 55.107C48.3721 55.0569 48.4912 54.9658 48.5752 54.846C48.6588 54.7262 48.7036 54.5835 48.7032 54.4376C48.8309 54.376 48.9369 54.2767 49.006 54.1535C49.0754 54.0299 49.1049 53.8884 49.0908 53.7477C48.9844 52.2267 48.402 50.7767 47.4257 49.6014C46.4494 48.4262 45.1278 47.5843 43.6464 47.1942C44.2714 44.8668 45.2256 42.6395 46.4808 40.5794ZM35.0417 2.3738C33.9203 2.02887 32.7988 1.72452 31.6977 1.48105C32.2868 1.37663 32.8917 1.40248 33.4697 1.55676C34.0476 1.71105 34.5843 1.98999 35.0417 2.3738ZM17.6284 36.1361C17.4074 36.1353 17.1901 36.0795 16.9963 35.9738C16.9745 35.9079 16.9745 35.8368 16.9963 35.7709L17.6896 36.0144L18.2401 36.197C18.0342 36.216 17.8265 36.1953 17.6284 36.1361ZM18.1789 34.4926C17.6446 34.3766 17.1297 34.1853 16.6497 33.9245C16.3635 33.5098 16.2535 32.9993 16.3438 32.5042C17.4857 33.1129 18.8926 33.539 19.4839 33.8637C19.9456 34.0921 20.4225 34.2887 20.9113 34.4521C20.5238 35.7303 18.9742 34.8173 18.1789 34.4926ZM34.0834 12.1738C33.0027 12.3564 29.6587 11.8492 29.6587 10.1448C29.9442 5.9854 36.6934 5.43757 37.4069 9.57668C37.713 11.2202 35.368 11.9303 34.0834 12.1738ZM37.1012 6.51292C36.2108 5.88218 35.1962 5.4465 34.1242 5.23467C33.4312 5.12633 32.7231 5.16086 32.0441 5.33621C31.3651 5.51157 30.7296 5.82394 30.177 6.25394C29.6244 6.68395 29.1665 7.22244 28.8318 7.8359C28.4971 8.4494 28.2927 9.1248 28.2314 9.82017C27.8439 12.9245 32.4521 14.2028 35.7758 13.168C34.1933 17.6888 32.1432 22.0338 29.6587 26.1332C28.8635 27.4521 27.9867 28.6897 27.2322 30.0289C26.0496 32.0578 25.4787 33.6811 22.6852 33.3361C21.0118 33.001 19.415 32.3613 17.9751 31.4492C16.3642 30.597 15.936 30.3129 16.9759 28.2839C19.8306 22.3593 22.3386 16.11 24.6835 10.0231C25.7234 7.32451 26.4166 2.13032 30.1073 2.65786C32.7103 3.12518 35.2492 3.8947 37.672 4.9506C37.4887 5.43757 37.2847 5.94482 37.1012 6.45207V6.51292ZM25.9884 46.6666C22.1143 46.6666 15.6098 45.7942 10.3083 46.6666C12.592 44.9624 24.6223 44.7391 25.9884 46.6666ZM47.5612 53.7682C46.4016 53.8787 45.2342 53.8787 44.0746 53.7682C42.2393 53.7682 40.4249 53.9302 38.6102 54.0725C34.7727 54.4036 30.9192 54.5119 27.0691 54.3969C19.1781 54.1535 11.2463 53.6868 3.37558 53.6259C3.88535 47.9042 11.2463 47.9853 15.6098 48.0058C19.4024 48.0058 23.2154 48.0058 27.0284 48.0058C32.5949 48.107 46.6029 45.1853 47.5612 53.7682ZM42.1986 46.7883C40.9118 46.502 39.6014 46.3321 38.2839 46.281C40.6082 42.507 42.2192 38.0027 44.2378 34.1071C46.5562 30.119 47.995 25.6855 48.4587 21.1013C48.7645 14.8318 43.4833 12.1738 38.1614 11.6057C38.4545 11.2295 38.6755 10.8032 38.814 10.3477C38.9264 9.98007 38.9611 9.59315 38.9159 9.21149C39.4315 9.25312 39.9497 9.25312 40.4656 9.21149C43.16 9.20996 45.7838 10.0707 47.9487 11.6666C52.027 14.5274 52.7812 19.6202 51.8433 24.226C50.6584 28.485 48.9313 32.5761 46.7052 36.3999C45.1554 39.5042 42.7493 43.2783 42.1986 46.7883Z" stroke="#231F20" mask="url(#path-1-outside-1)"/>
<path d="M22.4742 26.4919L22.4875 26.4933C22.6684 26.5128 22.8409 26.5798 22.9873 26.6877L22.4742 26.4919ZM22.4742 26.4919H22.4608M22.4742 26.4919H22.4608M22.4608 26.4919C22.4574 26.4919 22.4266 26.4883 22.3454 26.4171C22.316 26.3913 22.288 26.3641 22.2554 26.3325C22.2464 26.3237 22.237 26.3146 22.2272 26.3051C22.1878 26.2671 22.1402 26.2222 22.0889 26.1829C21.7918 25.9227 21.4355 25.7386 21.0509 25.6466L21.0331 25.6423M22.4608 26.4919L21.0331 25.6423M21.0331 25.6423L21.0149 25.6407M21.0331 25.6423L21.0149 25.6407M21.0149 25.6407C20.7957 25.6212 20.5759 25.6739 20.3895 25.791L20.3895 25.791M21.0149 25.6407L20.3895 25.791M20.3895 25.791C20.2048 25.9071 20.0631 26.0799 19.9858 26.2835M20.3895 25.791L19.9858 26.2835M22.0785 29.1166L22.0616 29.1114C21.3848 28.9049 20.7692 28.5364 20.2687 28.0379C20.1621 27.9381 20.0794 27.8153 20.0274 27.6788L22.0785 29.1166ZM22.0785 29.1166L22.0959 29.1193M22.0785 29.1166L22.0959 29.1193M22.0959 29.1193C22.256 29.1444 22.4199 29.1305 22.5735 29.0788L22.5735 29.0788M22.0959 29.1193L22.5735 29.0788M22.5735 29.0788C22.7271 29.0271 22.866 28.9391 22.9781 28.8222C23.0903 28.7052 23.1724 28.5629 23.2173 28.4074L23.2173 28.4073M22.5735 29.0788L23.2173 28.4073M23.2173 28.4073C23.2518 28.2879 23.2635 28.1635 23.2523 28.0405M23.2173 28.4073L23.2523 28.0405M19.9858 26.2835C19.9134 26.4543 19.8761 26.6377 19.8761 26.8231C19.8761 26.9897 19.9063 27.1548 19.965 27.3105C19.9614 27.4359 19.9825 27.561 20.0274 27.6787L19.9858 26.2835ZM23.2523 28.0405C23.3272 27.9182 23.3757 27.7812 23.3941 27.6382C23.3941 27.6382 23.3941 27.6382 23.3941 27.6381L23.1462 27.6063M23.2523 28.0405L23.0904 27.2061M23.1462 27.6063C23.1637 27.4703 23.1444 27.3322 23.0904 27.2061M23.1462 27.6063C23.1287 27.7422 23.0751 27.8711 22.991 27.9796L23.1462 27.6063ZM23.0904 27.2061L23.3202 27.1077C23.3202 27.1077 23.3202 27.1077 23.3202 27.1077L23.0904 27.2061Z" fill="#231F20" stroke="#231F20" stroke-width="0.5"/>
<path d="M21.5113 24.7457L21.5113 24.7456C21.5591 24.6132 21.6349 24.4925 21.7335 24.3919C21.8322 24.2912 21.9515 24.2131 22.083 24.1625C22.2121 24.1128 22.3502 24.0909 22.4883 24.098H22.6188C22.7478 24.0731 22.8807 24.0741 23.0096 24.1013L21.5113 24.7457ZM21.5113 24.7457C21.4635 24.8782 21.445 25.0194 21.4569 25.1597L21.4569 25.1598M21.5113 24.7457L21.4569 25.1598M21.4569 25.1598C21.4688 25.3 21.5109 25.4361 21.5803 25.5587L21.4569 25.1598ZM23.3926 24.2734L23.3926 24.2734C23.5064 24.3576 23.6006 24.4653 23.6688 24.5892L23.3926 24.2734ZM23.3926 24.2734C23.2788 24.1892 23.1482 24.1306 23.0097 24.1013L23.3926 24.2734ZM22.2419 26.038C22.1037 26.0101 21.9731 25.9529 21.8589 25.8702L22.2419 26.038ZM22.2419 26.038C22.3701 26.0638 22.502 26.064 22.6301 26.0386M22.2419 26.038L22.6301 26.0386M22.6301 26.0386H22.7371C22.8746 26.0481 23.0127 26.0289 23.1424 25.9818C23.2755 25.9336 23.3966 25.8572 23.4975 25.758C23.5983 25.6587 23.6765 25.5389 23.7266 25.4065L22.6301 26.0386ZM21.5804 25.5588C21.6497 25.6814 21.7448 25.7876 21.8589 25.8702L21.5804 25.5588Z" fill="#231F20" stroke="#231F20" stroke-width="0.5"/>
</g>
<defs>
<clipPath id="clip0">
<rect width="56" height="56" fill="white"/>
</clipPath>
</defs>
</svg>
