<?xml version="1.0" encoding="utf-8"?>
<!-- Generator: Adobe Illustrator 25.0.0, SVG Export Plug-In . SVG Version: 6.00 Build 0)  -->
<svg version="1.1" id="Isolation_Mode" xmlns="http://www.w3.org/2000/svg" xmlns:xlink="http://www.w3.org/1999/xlink" x="0px"
	 y="0px" viewBox="0 0 66.4 101.9" style="enable-background:new 0 0 66.4 101.9;" xml:space="preserve">
<style type="text/css">
	.st0{fill:#0C4EA2;}
</style>
<path class="st0" d="M65.6,61c-0.4-3.4-2.2-6.7-5-8.8l-0.2-0.2c-0.3-0.2-0.5-0.3-0.6-0.5c-0.7-0.7-0.7-0.7-0.1-1.7
	c0.4-0.5,0.8-1.1,1.1-1.6c0.7-0.9,1.4-1.8,1.9-2.9c2-4.1,2.9-8.6,2.7-13.1c-0.1-3.9-1.5-7.5-4-10.3c-1.2-1.5-2.5-2.9-3.7-4.3
	c-2.2-2.4-4.4-5-6.4-7.6c-2.4-3-5.4-5.4-8.9-7.1c-6.1-3.1-13.2-3.9-19.9-2.1C16.1,2.3,10.4,6.2,6.7,11.7c-2.4,3.5-4,7.3-4.6,11.3
	c-0.5,2.1-0.6,4.3-0.2,6.7C3.1,35,3.4,35.5,6,36.6c0.6,0.2,1.3,0.5,2.2,1c0.5,0.2,1.8,1.3,2.9,2.3c2.4,2.1,3.9,3.3,5,3.6
	c1.5,0.2,3.1,0.2,4.9,0.1c0.5,0,0.9,0,1.4,0c0.9,0,1.7,0,2.6,0c0.5,0,0.8,0.1,1,0.1c0,0.3,0,0.8,0,1l-0.3,4.5c0,2.3,0.7,3.2,2.7,3.8
	c0.9,0.3,1.9,0.6,2.9,0.8c1.5,0.3,2.4,1.4,3.3,3c0.2,0.3,0.3,0.7,0.5,1.1c0.2,0.4,0.3,0.9,0.5,1.3c0.9,1.9,0.8,4.9-0.3,7.5
	c-0.7,1.8-1.8,3-2.9,3.5c-0.7,0.2-1.3,0.6-1.8,0.9c-0.3,0.2-0.5,0.3-0.8,0.5c0,0,0,0-0.1,0c0-0.1,0-0.1-0.1-0.2
	c0-0.2,0.1-0.3,0.1-0.5c0-0.2,0.1-0.4,0.1-0.6c0.5-1.3,0-2.7-1.2-3.4c-0.1-0.1-0.2-0.2-0.3-0.2c-0.1-0.1-0.3-0.2-0.5-0.4
	c-1.8-1-3.6-2.1-5.3-3.2c-1.1-0.7-2.1-1.3-3.2-2c-0.6-0.4-1.3-0.5-2-0.5c0,0,0,0,0,0c-2.2-0.1-4.4-0.2-6.7-0.1
	c-1.1,0.1-2.2,0.1-3.3,0.2c-1,0.1-2,0.1-3,0.2c-0.3,0-0.6,0-0.8,0c-2.4,0-2.7,0.5-3.3,2.8c-0.1,0.3-0.2,0.6-0.3,1.1
	C-0.1,65.9,0,67,0.3,68.1c0.5,4.2,1.5,8.1,2.8,11.8c1.7,5.5,5.6,10.5,10.8,13.8c4.2,3.2,9,5.1,13.7,7l0.9,0.3
	c1.5,0.6,2.9,0.9,4.4,0.9c1.9,0,3.8-0.2,5.7-0.4c0.6-0.1,1.1-0.1,1.8-0.2c0.9-0.1,1.7-0.4,2.4-0.7c2.7-1,5.4-2,8-3.2
	c1.6-0.7,2.9-1.4,4.1-2.3c2.6-2,4.8-4.6,6.4-7.5c0.2-0.5,0.5-1,0.7-1.4c1.3-2.5,2.6-5,3.3-7.9C66.6,72.5,66.7,66.7,65.6,61z
	 M18.5,36.5c0.5,0.5,0.9,0.9,1.4,1.4c0.4,0.4,0.8,0.7,1.1,1.1c-0.4,0-0.9-0.1-1.3-0.5c-0.8-0.6-1.4-1.4-1.9-2.3
	C18.1,36.3,18.3,36.4,18.5,36.5z M32.9,22.6h0.4C33.3,22.7,33.1,22.7,32.9,22.6z M33,22.3l-0.1,0.3c0,0,0,0,0,0
	c0-0.2-0.1-0.3-0.1-0.3c0-0.1,0.1-0.2,0.2-0.2l-0.2,0.2H33z M30.5,23.2c-0.1,0.2-0.5,0.5-0.7,0.6c-0.1,0-0.1-0.1-0.1-0.1l-0.1-0.3
	c-0.4-0.5-0.6-0.8-0.9-1.3L28.5,22l0.2,0c0.5,0,1,0.2,1.3,0.5l0.2,0.2C30.3,22.7,30.4,22.8,30.5,23.2z M27.6,25.8
	c0,0.4-0.4,1.2-0.8,1.5c-0.1,0-0.2,0-0.3-0.1c-0.5-0.4-0.9-1-1.4-1.7c-0.3-0.4-0.6-0.9-0.9-1.3L24.2,24c-0.1-0.1-0.3-0.3-0.3-0.5
	c0.3-0.3,0.7-0.6,1.3-0.7c0.1,0,0.2,0.1,0.3,0.1C26.4,23.9,27.1,24.8,27.6,25.8z M19.9,30.2c0.5,0.8,1.1,1.5,1.7,2.3
	c-0.5-0.2-1-0.5-1.5-0.7c-0.2-0.1-0.3-0.4-0.4-0.6C19.7,30.9,19.7,30.5,19.9,30.2z M22.9,30c-0.2-0.2-0.3-0.4-0.5-0.6
	c-0.1-0.3-0.3-0.6-0.4-0.9c-0.1-0.2-0.2-0.3-0.2-0.5l-0.1-0.1c-0.3-0.5-0.3-0.9-0.1-1.3c0.1-0.2,0.2-0.3,0.2-0.4c0,0,0.1,0,0.2,0.1
	c1,0.9,2,1.9,2.9,2.8c0.8,0.9,1.1,2,0.9,3.1l0,0.1c0,0.2,0,0.3-0.2,0.4c-0.3-0.3-0.5-0.5-0.8-0.8c-0.2-0.2-0.4-0.4-0.6-0.6
	C23.8,31,23.3,30.5,22.9,30z M32.3,27.4c0.4-0.3,0.8-0.5,1.3-0.7c1.2-0.3,1.5-0.3,1.5-0.3c0,0.1,0.2,0.4,0.2,1.8
	c-0.1,3.7-1.7,6.2-4.8,7.4c0,0-0.1,0-0.1,0c-0.1,0-0.2,0.1-0.4,0.1c0,0,0,0-0.1,0l0,0C29.6,31.8,30.3,29.3,32.3,27.4z M59.2,30.3
	c-0.6-0.8-1.3-1.7-2.1-2.5c-0.2-0.3-0.3-0.6-0.5-0.9c-0.2-0.3-0.4-0.6-0.5-0.8c-0.1-0.3-0.2-0.5-0.3-0.8c0.5,0.6,1,1.2,1.3,1.9
	c0.5,0.8,1,1.5,1.5,2.1c0.5,0.7,1,1.4,1.4,2.1C59.9,31.1,59.5,30.7,59.2,30.3z M54.7,29c0,0,0.1,0.1,0.1,0.1
	c0.1,0.2,0.3,0.4,0.5,0.5c0.3,0.4,0.6,0.7,0.9,1.1c0.6,0.8,1.2,1.6,1.7,2.3c0.8,1.3,1.7,2.6,2.7,3.9c0,0,0,0,0,0c0,0,0,0,0,0v0.2
	l0.1,0.2c0.1,0.4,0.1,0.9,0.1,1.5c-0.2,0.8-0.4,1-0.5,1.1c-0.4-0.5-0.8-1-1.2-1.5c-0.3-0.3-0.5-0.6-0.8-0.9c-0.3-0.4-0.7-0.9-1-1.4
	c-0.7-0.9-1.4-1.9-2.1-2.8c-0.1-0.1-0.1-0.3-0.1-0.4c-0.1-0.3-0.2-0.5-0.4-0.9c-0.3-0.5-0.4-1.1-0.2-1.8l0,0
	c0.1-0.2,0.1-0.5,0.1-0.8C54.7,29.4,54.7,29.2,54.7,29z M50.5,43.7c-0.5-0.4-1-0.8-1.6-1.2c0,0-0.1-0.1-0.1-0.2l0.1-0.1l0.1,0.1
	c0.3,0.2,0.5,0.4,0.8,0.6c0.1,0.1,0.2,0.2,0.3,0.3L50.5,43.7z M51.9,40.6c0.1,0.2,0.3,0.4,0.5,0.6c0.5,0.8,1.1,1.5,1.6,2.2
	c0.8,1.2,1.7,2.3,2.6,3.2c0,0.1,0,0.3-0.1,0.4c-0.3-0.1-0.8-0.4-1.3-0.9c-0.1-0.1-0.2-0.3-0.3-0.5c-0.2-0.3-0.4-0.6-0.6-0.9
	c-0.2-0.2-0.3-0.5-0.5-0.7c-0.2-0.3-0.4-0.6-0.6-0.8c-0.1-0.2-0.2-0.3-0.4-0.5c-0.1-0.2-0.2-0.3-0.3-0.4c-0.4-0.7-0.9-1.4-1.4-2
	L51,40c-0.1-0.1-0.1-0.4,0-0.5L51.9,40.6z M61.6,71.5c-0.2-0.2-0.3-0.4-0.5-0.8c-0.4-0.7-0.9-1.4-1.3-2.1c0.6,0.6,1.2,1.1,1.7,1.6
	C61.7,70.6,61.8,71.1,61.6,71.5z M61.6,66.1c-0.2-0.1-0.3-0.3-0.5-0.4c-0.5-0.4-1-0.9-1.4-1.3c-0.7-0.6-1.4-1.3-2-1.9
	c-0.3-0.3-0.5-0.7-0.7-0.9c-0.1-0.3-0.3-0.5-0.4-0.7c-0.2-0.4-0.4-0.7-0.5-1.1c1.6,1.1,3.1,2.4,4.9,3.8
	C61.5,64.1,61.7,64.9,61.6,66.1z M59.6,58.6c-2.5-2-4.8-3.8-6.2-6.7c1.5,1.3,3.1,2.6,4.7,4c0.9,0.9,1.6,2,2.2,3.3
	C60,58.9,59.8,58.8,59.6,58.6z M56.2,39.1c0.4,0.5,0.7,1,1,1.5c0.4,0.7,0.8,1.5,1.4,2.2c0.2,0.5,0.1,1-0.2,1.3
	c-0.3-0.4-0.7-0.7-1-1.1c-0.4-0.5-0.8-0.9-1.2-1.3c-0.4-0.5-0.7-0.9-1.1-1.4c-0.4-0.4-0.7-0.9-1-1.3c-0.2-0.3-0.3-0.6-0.5-0.8
	c-0.2-0.2-0.3-0.5-0.4-0.8l-0.1-0.1l-0.1-0.1c-0.2-0.2-0.3-0.4-0.3-0.7c0-0.6,0.2-1.1,0.6-1.4c0.8,1.3,1.8,2.5,2.7,3.7L56.2,39.1z
	 M31.9,94.6c0.9,1,1.7,1.8,2.6,2.7c-0.3,0-0.7-0.1-1-0.3c-1.4-1.2-2.6-2.2-3.6-3.2C30.6,93.6,31.2,93.9,31.9,94.6z M35.3,93.8
	c-0.1-0.1,0-0.2,0-0.1c0.1,0,0.2,0,0.3-0.1c0.1,0,0.3-0.1,0.5-0.1c0.3,0,0.5,0,0.7,0.2c1,0.9,1.9,2,2.6,3.3c-0.2,0.1-0.4,0-0.4,0
	l-0.1-0.1C37.3,96,36.1,95,35.3,93.8z M39.6,92.5L38.9,93c0,0,0,0,0,0l0.8-0.7c0.1-0.1,0.4-0.4,0.7-0.2c0.1,0.1,0.2,0.2,0.4,0.4
	c0.2,0.3,0.5,0.6,0.9,0.9c0.3,0.7,0.8,1.2,1.4,1.6c0.2,0.2,0.5,0.4,0.7,0.5c0,0,0.1,0.1,0.1,0.1l-0.1,0.1c-1.2,0.5-1.7,0.3-2.6-0.9
	c-0.2-0.3-0.4-0.7-0.7-1c-0.2-0.4-0.5-0.8-0.7-1.2L39.6,92.5z M43.1,90.9c-0.2-0.5-0.2-0.5,0.1-0.7c0.3-0.2,0.5-0.4,0.5-0.4
	c0.2,0,0.7,0.3,0.9,0.5c0.1,0,0.2,0.2,0.3,0.3c0.1,0.2,0.3,0.4,0.5,0.6c0.2,0.2,0.3,0.4,0.5,0.6c0.3,0.4,0.8,1,1.2,1.4l0.5,0.7
	c-0.4,0.1-0.6,0-1-0.2c-0.7-0.5-1.4-0.9-2.2-1.2c0,0-0.1-0.1-0.1-0.1L43.1,90.9z M48,90.2c-0.2-0.2-0.4-0.5-0.6-0.7
	c-0.3-0.4-0.6-0.7-0.9-1.1c-0.2-0.6-0.1-0.6,0.5-1l2.9,3.1l0.1,0.1c0.1,0.2,0.2,0.3,0.3,0.4c0.1,0.2,0.2,0.4,0.4,0.6l0.3,0.4
	c0.1,0.2,0.1,0.3,0.1,0.3s0,0,0,0.1c-0.1,0.1-0.2,0.2-0.4,0.1c-0.4-0.3-0.8-0.5-1.2-0.8L49,91.3c-0.2-0.2-0.4-0.4-0.5-0.6
	C48.3,90.5,48.2,90.4,48,90.2z M50.2,87c-0.2-0.3-0.5-0.5-0.6-0.8l-0.1-0.1c-0.3-0.3-0.4-0.8-0.4-1.3c0.1-0.3,0.2-0.4,0.3-0.4
	c0,0,0.1,0,0.2,0.1c0.2,0.2,0.4,0.4,0.6,0.6c0.3,0.3,0.5,0.5,0.8,0.7c0.3,0.2,0.6,0.6,0.8,1c0.1,0.1,0.2,0.3,0.3,0.4
	c0.2,0.3,0.5,0.6,0.8,0.8c0.2,0.2,0.5,0.5,0.7,0.7c0.1,0.2,0.3,0.4,0.5,0.6c-0.2,0.7-0.4,1-0.6,1c-0.1,0-0.4,0-0.8-0.3
	c-0.2-0.3-0.5-0.6-0.8-0.8L51.1,88C50.8,87.6,50.5,87.3,50.2,87z M54,85.2c-0.1-0.1-0.2-0.2-0.3-0.3c-0.5-0.7-1-1.3-1.5-1.9
	c-0.2-0.2-0.3-0.4-0.5-0.5c-0.1-0.2-0.2-0.7,0-1.4c0.1-0.4,0.3-0.7,0.4-0.8c0.7,0.8,1.5,1.6,2.2,2.4c0.8,0.8,1.5,1.6,2.2,2.4
	c0.4,0.6,0.4,0.8,0,1.4l0,0.1c-0.1,0.2-0.2,0.4-0.4,0.6c-0.6-0.7-1.2-1.2-1.9-1.7C54.2,85.4,54.1,85.3,54,85.2z M53.9,76.8l0.6-1.4
	c0.1-0.2,0.2-0.4,0.3-0.4c0.5,0.8,1,1.4,1.5,2c0.1,0.1,0.3,0.3,0.4,0.4c0.2,0.3,0.5,0.6,0.9,0.9c0.3,0.3,0.6,0.7,0.9,1l0.2,0.2
	c1,1.3,1,1.3,0.4,2.5l0,0c-0.2,0.3-0.3,0.7-0.5,0.8L58.3,83c-1.5-1.4-2.8-3.1-4.4-5.5C53.8,77.3,53.8,77,53.9,76.8z M59.5,76.5
	c-0.1-0.2-0.3-0.3-0.4-0.4c0,0-0.1-0.1-0.1-0.1l-0.6-0.6c-0.6-1.1-1.2-2.2-1.9-3.2c-0.6-0.8-0.7-1.8-0.3-2.7
	c1.1,1.2,2.2,2.7,3.2,4.4c0.2,0.5,0.5,1.1,0.9,1.5l0.2,0.2c0.6,0.5,0.6,0.9,0.3,2.1l0-0.1C60.3,77.2,60,76.8,59.5,76.5z M30.1,46.4
	c0.1-1.4,0.2-2.6,0.2-3.9c0-0.6,0-1.2,0.1-1.9c0-0.3,0.1-0.5,0.3-0.6c0.7-0.2,1.3-0.6,1.8-0.9c0.3-0.2,0.6-0.4,0.8-0.5
	c2.8-1.1,4.3-3.5,5.5-6c0.9-2.2,1.2-4.5,0.9-6.6c-0.1-2.4-1.4-4.6-3.4-5.7c-4.7-3.1-9.7-3.2-14.3-0.4c-1.5,1-2.8,2.3-3.6,3.9
	c-1.2,1.9-2.1,4-2.6,6.4c-0.1,0.7-0.3,1.1-0.3,1.2c-0.1,0.1-0.7,0.1-1,0.1c-1.1,0-2.2,0.1-3.3,0.1c-1.1,0-2.2,0.1-3.4,0.1
	c-0.6,0.1-1.2-0.4-1.4-1.2c-0.6-1.5-0.7-2.7-0.5-4.1c0.6-6,3.1-11.6,7-15.8c0.8-0.8,1.4-1.2,2.1-1.7c1.1-0.7,2.2-1.3,3.4-1.9
	C19,6.8,19.7,6.4,20.5,6c0.9-0.6,2.1-0.7,3.2-0.9C24.2,5,24.6,5,25.1,4.9c4.1-0.9,8.6-0.5,12.4,1.3c0.6,0.3,1.3,0.6,2,0.8
	c0.6,0.2,1.3,0.5,1.8,0.8c5,2.5,8.1,6.8,9.7,13.1c0.1,0.4,0.2,0.9,0.1,1.3l0,0.1c-0.1,3.2-0.5,6.4-1.2,9.4c-0.8,3.6-2.8,6.8-5.6,8.9
	L44,40.9c-0.3,0.2-0.6,0.4-0.8,0.7c-1,0.9-1.2,2.5-0.4,3.4c0.5,0.7,1.1,1.5,1.8,2.2c2.3,2.1,4.1,4.8,5.2,7.7c1.7,4.2,2.2,9,1.5,13.6
	c-0.9,4.5-2.6,8.7-5.3,12.4c-1,1.5-2.2,2.8-3.6,3.8c-0.3,0.2-0.6,0.4-0.9,0.6c-0.5,0.3-1,0.7-1.5,1.1c-1.8,1.6-4.2,2.5-6.7,2.5
	c-1.2,0.1-2.5,0-3.7,0c-0.6,0-1.3,0-1.9,0h-1v0.1l-1.6,0c-4.5,0.4-8.8-1.2-13.6-5.2l-0.1-0.1c-1.2-0.8-2.2-1.7-2.9-2.5
	c-0.2-0.4-0.4-0.7-0.7-1c-0.9-1.3-1.7-2.6-2-4.2c-0.2-0.8-0.4-1.6-0.9-2.4c-0.8-1.6-0.9-3.4-0.9-5.2c0-0.8-0.1-1.6-0.2-2.4
	c-0.1-0.5,0.2-0.8,0.6-0.9l0.1,0c3.2-0.5,6.2-0.7,9-0.4c0.3,0,0.6,0.2,0.6,0.5l0,0.1c0.3,1.1,0.6,2.2,0.8,3.2
	c0.3,2.4,1.5,4.6,3.4,5.9c3.7,2.9,7.1,3.6,10.5,2.2c2.3-0.9,4.5-2.1,6.6-3.7c3.9-2.9,5.6-10,3.5-14.6c-0.2-0.4-0.3-0.7-0.4-1.1
	c-1.4-4.1-3.8-6.7-7.1-7.9C30.4,49,30,48.2,30.1,46.4z M25.2,70.8c-0.1,0-0.3,0-0.4-0.1c-0.2-0.4-0.5-0.7-0.7-0.9
	c-0.2-0.3-0.4-0.5-0.6-0.8c-0.1-0.2-0.2-0.4-0.3-0.6c0.6,0.3,1.3,0.8,1.9,1.5C25.3,70.2,25.3,70.5,25.2,70.8z"/>
</svg>
