<?xml version="1.0" encoding="utf-8"?>
<!-- Generator: Adobe Illustrator 25.0.0, SVG Export Plug-In . SVG Version: 6.00 Build 0)  -->
<svg version="1.1" id="Isolation_Mode" xmlns="http://www.w3.org/2000/svg" xmlns:xlink="http://www.w3.org/1999/xlink" x="0px"
	 y="0px" viewBox="0 0 63.6 100.8" style="enable-background:new 0 0 63.6 100.8;" xml:space="preserve">
<style type="text/css">
	.st0{fill:#0C4EA2;}
</style>
<path class="st0" d="M63.6,43.5l-0.3-22.1V17c0-1.3-0.6-2.4-1.7-2.9c-4.1-3.2-7.6-7.3-9.8-11.9c-0.7-1.4-2.1-2.2-3.5-2.1
	c-2.9,0-5.7,0-8.5-0.1c-2.8,0-5.6,0-8.4,0c-0.5,0-0.9,0-1.4,0.1c-0.4,0-0.8,0-1.2,0c-1.7,0-3.4,0.9-4.2,2.2c-1.4,2-2.8,3.7-4.3,5.4
	c-2.9,3.4-5.3,6.7-7.6,10.2c-0.6,1.2-1.5,2.3-2.4,3.3c-1.6,1.6-3,3.4-4.4,5.1c-1.6,2.1-3.3,4.2-5.4,6c-0.8,0.8-0.8,2,0,2.8
	c0.2,0.2,0.3,0.3,0.6,0.4c3.3,1.9,6.4,4.1,9.4,6.8c0.9,0.8,1.8,1.5,2.6,2.2c1,0.8,2,1.6,2.9,2.5c0.4,0.5,0.8,0.8,1.3,1.1
	c1.2,0.9,2.9,0.7,3.9-0.4l0.1-0.1c1.8-2.1,3.7-4.2,5.6-6.4c0,0,0.1-0.1,0.1-0.1c0,0.1,0,0.1,0,0.2c0.3,5.3,0.1,10.9-0.4,17.1
	c-0.3,3.1-0.5,5.7-0.5,8.2c0,1.1,0,2.3,0,3.5c0.1,5.1,0.1,10.3-1,15.3c-0.5,2.4,0.8,3.8,2.1,5c1.7,1.7,2.8,3.3,3.9,4.9
	c0.9,1.2,1.8,2.4,2.8,3.6c0.8,1,1.4,1,2.1,1c0.2,0,0.5,0,0.8,0c4.4,0.9,11,0.9,16.3,0.9c1.5,0,2.9,0,4.2,0c1.3,0,2.5-0.6,3.3-1.6
	C62,97.8,62,96,62,94.4l0-0.3c0-0.7,0-1.3,0-2c0-2.6,0-5.2,0.2-7.8c0.3-3.3,0.4-6.7,0.5-10c0.1-3.2,0.2-6.6,0.5-9.9
	c0.4-4.7,0.4-9.5,0.3-13.8C63.5,48.2,63.5,45.8,63.6,43.5z M58.1,73.8c0,0-0.1,0-0.3,0.1c-1-1-2-2.1-3-3.2c-0.3-0.4-0.7-0.8-1-1.2
	c-0.7-0.8-1.5-1.7-2.3-2.5c-0.2-0.6-0.5-1.1-0.8-1.6c-0.3-0.5-0.6-1.1-0.8-1.7c-0.2-0.6-0.1-1.3,0-1.8c0,0,0,0,0,0
	c1.8,1.6,3.4,3.3,4.9,5.2c0.2,0.3,0.5,0.8,0.7,1.3c0.4,0.8,0.8,1.6,1.5,2.3c0.2,0.4,0.4,0.9,0.8,1.2c0.2,0.2,0.3,0.5,0.3,0.9
	C58.1,73.6,58,73.8,58.1,73.8z M55.5,18.7l0.7,0.8c0.3,0.5,0.7,1,1.1,1.5c0.1,0.1,0.1,0.2,0.2,0.3c0,0.1,0.1,0.1,0.1,0.1l0.1,0.1
	c0.3,0.4,0.4,0.8,0.6,1.3c0.2,0.4,0.3,0.8,0.5,1.1c0.1,1,0.1,1.8,0,2.7c0,0,0,0.1,0,0.1c-0.6-0.7-1.3-1.4-2-2c-0.3-0.3-0.7-0.7-1-1
	c-0.6-0.6-1.3-1.3-1.9-1.9c-0.2-0.3-0.4-0.7-0.5-1c-0.2-0.4-0.4-0.7-0.6-1.1c-0.9-1.6-1.1-3.5-0.7-5.2
	C53.3,16.2,54.4,17.5,55.5,18.7z M55.7,63.4c-0.8-1-1.8-1.9-2.8-2.8l0.5-0.2l-1.6-0.9c-1.9-1.1-1.8-2.5-1.4-4.8c0.5,0.5,1,1,1.5,1.5
	c0.5,0.5,1.1,1.1,1.6,1.6c0.8,0.9,1.5,1.8,2.2,2.7c0.7,0.9,1.4,1.8,2.1,2.7c0.1,0.2,0.1,0.3,0.2,0.4l0,0.1c0.5,1,0.5,2.1,0.5,3.2
	c-0.1-0.1-0.2-0.3-0.2-0.4l-0.1-0.1C57.4,65.1,56.5,64.1,55.7,63.4z M51.1,51.1c-0.3-0.8-0.6-1.9-0.3-3.2l0-0.1
	c0.8,0.9,1.7,1.8,2.5,2.6c0.3,0.3,0.6,0.6,0.9,0.8c1,1.1,1.8,2.1,2.7,2.9l-4.2-1.4L51.1,51.1z M56.3,49.2c-1.7-1.8-3-3.1-4.4-4.2
	c-1.1-1.4-1.5-3.1-1-4.9c0.9,1.2,2.1,2.8,3.6,4.1c1.3,1.6,2.6,3,3.9,4c0.4,1,0.5,2.1,0.4,3.2c-0.3-0.3-0.7-0.6-1-0.9
	C57.3,50.1,56.8,49.7,56.3,49.2z M59.1,44.7c-0.3-0.2-0.5-0.5-0.8-0.7c-0.6-0.5-1.1-1-1.6-1.5c-0.6-0.6-1.2-1.4-1.7-2
	c-0.7-0.8-1.4-1.7-2.2-2.5l-0.8-1.4L52,36.5c-1-1.2-1-2.4-0.6-4.1c0.1,0.1,0.2,0.1,0.3,0.2c0.5,0.5,1,1,1.5,1.5c0.5,0.5,1,1,1.4,1.4
	c1.4,1.6,2.6,2.9,3.8,3.9c0.1,0.3,0.2,0.5,0.3,0.7l0.1,0.2C59.2,41.8,59.3,43.3,59.1,44.7z M54.7,26.9c0.3,0.4,0.7,0.8,1,1.2
	c0.3,0.4,0.6,0.8,0.9,1.1c0.1,0.2,0.3,0.4,0.5,0.6c1.6,1.6,1.6,3.5,1.5,5.7c-0.2-0.2-0.4-0.3-0.5-0.5c-0.5-0.4-1-0.9-1.4-1.3
	c-0.6-0.6-1.2-1.2-1.8-1.9c-0.5-0.6-1.1-1.2-1.6-1.7c-0.2-1-0.7-2.1-1.3-3.2c-0.7-1.4-0.8-2.3-0.5-3.9L54.7,26.9z M57.4,88.2
	c-1-1-2.1-2-3.1-2.9c-0.2-0.4-0.5-0.9-1.2-1.1c-1-1-2-1.9-3-2.8l-0.2-0.7c-0.4-1.1-0.7-2.2-0.7-3.2l0-0.1c0-0.2,0-0.3,0.1-0.5
	c1,1.3,2.1,2.5,3.5,3.7c0.2,0.2,0.4,0.5,0.6,0.7c0.6,0.6,1.2,1.4,1.9,2.1c0.2,0.6,0.7,1,1,1.4c0.1,0.1,0.2,0.2,0.3,0.3
	C57.6,85.8,57.8,87.1,57.4,88.2z M58,81.7c-1.1-1.2-2.1-2.2-3.3-3.1c-0.4-0.4-0.8-0.9-1.2-1.3c-0.9-1.1-1.9-2.1-3.1-2.9
	c-0.1-0.2-0.2-0.3-0.3-0.5c-0.1-0.2-0.2-0.4-0.3-0.6c-0.6-1.2-0.7-2.5-0.4-4c0-0.1,0.1-0.2,0.1-0.2c1.1,1.4,2.2,2.8,3.7,4.3
	c0.2,0.3,0.5,0.5,0.7,0.8c1,1.1,1.9,2.2,3.2,2.9C58.5,78.1,58.3,79.5,58,81.7z M58.8,59.2c-1.3-1.6-2.6-3.1-4-4.5h2.6
	c0.2,0.2,0.4,0.3,0.6,0.5C58.6,56.7,58.8,57.5,58.8,59.2z M39.6,89.5c1.1-0.1,2.1,0.2,2.8,1c0.8,0.9,1.5,1.8,2.3,2.7
	c0.7,0.8,1.4,1.6,2.1,2.4c0,0,0,0,0,0c-0.1,0-0.1,0-0.2,0.1l-0.1,0c-0.7,0.1-1.4-0.1-1.9-0.5C42.4,93.3,40.8,91.4,39.6,89.5
	L39.6,89.5z M35.8,90.2c1.4,1.3,2.8,2.7,4.1,4.3l0.1,0.1c0.1,0.1,0.2,0.4,0.2,0.4l-0.2,0.3l0.1,0.4c0,0.1,0,0.1,0,0.1
	c-0.1,0.1-1.1,0.2-3.1-1.2l0,0c-1.3-0.9-1.8-1.8-2.3-2.8c-0.5-0.9-1.1-1.9-2.2-2.9C33.8,88.8,34.9,89.2,35.8,90.2z M49.6,94.5
	C48.2,93,47,91.4,46,89.7c0.2,0,0.4,0,0.7,0.3c2.1,1.8,4.2,3.8,6.1,5.6c0,0-0.1,0-0.1,0l-0.1,0C51.6,95.8,50.5,95.3,49.6,94.5z
	 M52.5,87.5c0.5,0.5,1.1,1.1,1.6,1.7c0.5,0.5,1,1.1,1.6,1.6c0.2,0.3,0.5,0.6,0.7,0.9c0.2,0.2,0.3,0.4,0.4,0.5
	c-2.6-1.5-4.9-3.6-6.7-6.1L50,86c-0.4-0.4-0.6-1-0.5-1.6C50.5,85.5,51.5,86.5,52.5,87.5z M17.6,35.3c0.1,0,0.2,0,0.3,0
	c0,0,0,0.1,0.1,0.1c0.1,0.2,0.2,0.3,0.3,0.6c0.2,0.4,0.5,0.7,0.7,1c0.2,0.3,0.4,0.5,0.5,0.8c0.1,0.2,0.1,0.4,0.2,0.6
	c0.1,0.4,0.3,0.9,0.6,1.2c0.2,0.2,0.3,0.4,0.5,0.6c0.1,0.1,0.1,0.1,0.2,0.2c0,0.1,0,0.1,0,0.1c-0.2,0.3-0.4,0.5-0.5,0.5
	c-0.1,0-0.3-0.1-0.4-0.3c-0.7-0.9-1.7-2.2-2.5-3.4C17.1,36.7,17.1,35.9,17.6,35.3z M20.5,33.9c0-0.3-0.1-0.5-0.1-0.7
	c0-0.1,0-0.2-0.1-0.2l0-0.1c0.1-0.6,0.9-1.6,1.3-1.8c0.1,0,0.3,0.1,0.4,0.2c0.2,0.4,0.4,0.8,0.6,1.1c0.2,0.4,0.4,0.8,0.6,1.2
	c0.1,0.1,0.1,0.3,0.2,0.4c0.1,0.3,0.3,0.6,0.4,0.8l0.1,0.2c0.3,0.9,0.4,1.4-0.1,2l0,0c-0.2,0.3-0.5,0.6-0.9,0.8L23,37.8
	c-0.1-0.1-0.2-0.3-0.2-0.5c-0.1-0.3-0.3-0.7-0.6-1.1C21.6,35.4,21,34.7,20.5,33.9L20.5,33.9z M23.9,28.6c-0.1-0.1-0.1-0.4,0-0.5
	l0.1-0.1c0-0.1,0.1-0.1,0.2-0.2c1,1.5,1.8,3.2,2.7,4.8c0.1,0.2,0.3,0.7-0.1,1c-0.2-0.3-0.4-0.6-0.6-0.9c-0.1-0.2-0.3-0.4-0.4-0.7
	c-0.2-0.3-0.4-0.6-0.6-0.9c-0.2-0.3-0.3-0.6-0.5-0.8C24.6,29.7,24.3,29.1,23.9,28.6z M27.5,6.3c1.4-1.3,2.4-2.1,4-1.9
	c1.1,0.1,2.3,0.1,3.4,0.1c0.5,0,1.1,0,1.7,0l0.3,0c1.6-0.4,3.1-0.3,4.8-0.1c1.3,0.1,2.6,0.3,3.9,0.1c0.4,0,0.7,0.1,1.1,0.2l0.2,0.1
	c0.1,0,0.4,0.1,0.4,0.5c0,1,0.1,1.9,0.1,2.9c0.1,1.9,0.2,3.9,0.2,5.8c-0.1,3-0.3,5.9-0.5,8.8c-0.2,3.8-0.5,7.8-0.6,11.8
	c-0.1,1.5,0,3,0,4.5c0,1.4,0,2.9,0,4.3c0,0.7,0,1.4-0.1,2.1c-0.1,2.1-0.1,4.2-0.3,6.3c-0.7,6.3-0.9,12.7-1,18.8L45,73.2
	c0,1,0,1.9,0.1,2.8c0.1,1.3,0.2,2.5,0,3.7c0,0.3-0.1,0.5-0.1,0.8c0,0.5-0.1,0.9-0.2,1.3c-0.8,3-0.9,3-3.7,3
	c-3.2-0.1-6.4-0.3-9.5-0.6C31.2,84.1,31,84,31,84c0,0-0.1-0.1,0-0.7l0,0c0-0.7,0-1.3,0.1-2c0-1,0-1.9,0.1-2.8
	c0.2-3.3,0.3-5.9,0.1-8.2c-0.1-4.7-0.1-9.2-0.1-14c0-3.3,0-6.8-0.1-10.4c-0.2-4-0.1-7.8,0.4-11.7c0.1-1.2,0.1-2.3,0-3.5l-1.2-11
	c0-0.5-0.3-1.1-0.7-1.4c-0.4-0.4-1-0.5-1.5-0.4c-0.3,0-0.7,0.1-1.2,0.5c-0.7,0.5-1.4,1.2-2,1.8c-2.8,3.2-5.8,6.6-8.7,10
	c-0.7,0.9-1.4,1.7-2.1,2.6c-0.7,0.9-1.3,1.7-2,2.6l-0.1,0.1c-0.1,0.2-0.3,0.3-0.5,0.4c-0.1,0-0.2,0-0.3-0.1
	c-0.4-0.2-0.7-0.4-1.1-0.5c-0.2-0.1-0.5-0.2-0.6-0.3c-1.3-0.7-2.5-1.7-3.4-2.8c0.6-1.4,1.5-2.6,2.5-3.6c2.2-2.1,4.1-4.5,5.9-6.9
	c0.9-1.1,1.7-2.2,2.6-3.3C20.4,14.3,23.9,10.1,27.5,6.3z M1.3,34.4L1.3,34.4L1.3,34.4L1.3,34.4z"/>
</svg>
