<svg width="110" height="110" viewBox="0 0 110 110" fill="none" xmlns="http://www.w3.org/2000/svg">
<g clip-path="url(#clip0)">
<path d="M100.34 96.6014C99.4111 93.3039 97.4605 89.96 95.9279 86.8948C92.8859 80.7411 89.5652 74.5874 85.5711 68.9678C85.5479 68.8982 85.5014 68.8053 85.4782 68.7356C81.4145 62.7213 75.7484 57.659 70.6862 52.5038C65.113 46.8378 59.447 41.2182 53.7113 35.7147C48.1381 30.3738 42.4953 25.1025 36.7364 19.9474C31.4187 15.187 26.101 10.1015 20.2027 6.06092C18.0896 3.20468 14.676 6.43247 12.7951 8.03475C9.49762 10.8213 5.17843 14.9547 4.99266 19.5526C4.99266 19.6455 5.01588 19.7151 5.0391 19.7848C4.99266 21.1316 5.75897 22.3159 6.71105 23.4073C9.3583 26.519 12.4003 29.3753 15.2565 32.3244C21.4567 38.7103 27.6568 45.0962 33.8569 51.4356C39.9177 57.6358 45.9553 63.8127 52.0161 70.0128C57.7518 75.8414 63.325 82.0647 69.9199 86.9412C70.0592 87.0341 70.2217 87.1038 70.3843 87.0806C76.3986 90.0297 82.3666 93.1181 88.4738 95.8351C91.2139 97.089 94.0237 98.2269 96.9032 99.1557C97.9017 99.4576 99.2718 100.131 100.177 99.2718C101.013 98.4823 100.595 97.507 100.34 96.6014ZM52.1554 37.2241C57.5428 42.4257 62.8605 47.697 68.1318 53.0611C73.287 58.3092 78.0938 64.2771 83.7598 68.9678C82.3201 69.2465 81.0429 70.0128 80.0676 71.1274C79.1852 72.0563 78.8137 73.5425 78.2796 74.7268C70.5004 66.7154 62.6283 58.7968 54.6866 50.9944C50.6925 47.0468 46.6752 43.0759 42.5882 39.2212C38.7799 35.5986 35.018 31.6045 30.7917 28.4464C32.7655 26.5655 35.018 24.7774 36.3648 22.4553C41.6593 27.3318 46.9306 32.2315 52.1554 37.2241ZM14.1419 28.4232C12.0055 26.2404 7.24514 22.8268 6.38595 19.5526C7.98823 16.6963 9.12608 14.0259 11.425 11.5412C13.5382 9.2887 15.721 6.59502 18.8326 6.31636C22.5713 10.3801 26.8208 14.0259 31.0007 17.6949C28.1909 19.2043 25.8687 21.7586 23.7324 24.0343C21.5263 26.3797 19.0649 28.9805 17.4858 31.86L14.1419 28.4232ZM18.6004 33.021C21.0155 30.4202 22.9893 27.3782 25.4275 24.7542C27.4478 22.5482 29.8628 20.644 31.6973 18.2986C32.8816 19.3436 34.0659 20.3886 35.2038 21.4335L35.7611 21.9444C32.812 23.1287 30.4898 25.8688 28.3534 28.0981C25.9616 30.5828 23.593 33.2765 21.7586 36.2256L18.6004 33.021ZM38.1761 53.0611C33.1138 47.906 28.0516 42.7044 23.0125 37.526C25.2882 34.8787 27.3317 32.0457 29.7467 29.4914C29.77 29.4681 29.7932 29.4449 29.8164 29.4217C33.4157 33.5783 37.851 37.1777 41.8219 40.9628C45.9089 44.8175 50.0191 48.6955 54.0596 52.5967C61.9781 60.283 69.7805 68.0854 77.4436 75.9807C77.2811 76.1433 77.0953 76.329 76.8863 76.4451C74.9125 77.583 73.1476 77.5365 71.5454 79.5104C70.4307 80.9037 69.8037 82.5988 69.7341 84.3869C58.6342 74.541 48.5329 63.6501 38.1761 53.0611ZM84.7119 92.1661C80.3231 90.0065 75.9342 87.8469 71.5454 85.6873C71.3828 83.7599 71.7079 81.9022 73.1012 80.416C74.7499 78.628 76.6308 78.3725 78.8369 77.9313C79.1388 77.8616 79.3942 77.6062 79.4871 77.2811C79.9747 75.6324 79.9747 74.1462 81.159 72.6833C82.204 71.3596 83.5276 70.6398 84.9674 69.8967C87.4753 74.1694 90.0528 78.3725 92.375 82.7846C93.1645 84.3172 93.9076 85.8498 94.6739 87.4057C91.748 87.7308 89.3098 91.3765 88.6828 94.047C87.3359 93.4432 86.0123 92.8163 84.7119 92.1661ZM97.2747 97.716L96.0904 97.2748C94.581 96.6942 93.0716 96.0673 91.5855 95.4171C91.1675 95.2313 90.7495 95.0455 90.3083 94.8365C90.6102 93.2807 91.3765 91.8177 92.4911 90.7031C93.3039 89.8904 94.372 89.4724 95.3009 88.8222C95.3938 89.008 95.4867 89.1937 95.5796 89.3795C96.3923 91.0747 99.086 95.2081 98.5287 97.1122C98.8073 98.3198 98.3661 98.5287 97.2747 97.716Z" fill="#231F20" stroke="#231F20" stroke-width="2" stroke-miterlimit="10"/>
</g>
<defs>
<clipPath id="clip0">
<rect width="128.142" height="27.4215" fill="white" transform="translate(19.3899) rotate(45)"/>
</clipPath>
</defs>
</svg>
