<svg width="651" height="1063" viewBox="0 0 651 1063" fill="none" xmlns="http://www.w3.org/2000/svg">
<g clip-path="url(#clip0)">
<path d="M421.615 119.179C420.263 119.163 418.965 118.651 417.966 117.74C416.967 116.828 416.338 115.582 416.198 114.237C415.336 99.0845 416.133 83.8831 418.574 68.9035L419.239 63.4863L415.628 63.9615C411.248 64.5636 406.837 64.9127 402.418 65.0069C399.7 65.2964 396.951 64.9962 394.36 64.1269C391.768 63.2577 389.395 61.8397 387.401 59.9699C391.678 52.3667 401.182 51.8916 410.496 51.4164H417.054H419.334L420.855 48.9453V47.0446C421.87 31.9429 424.385 16.9797 428.363 2.37625C428.477 1.70507 428.826 1.09661 429.349 0.660841C429.872 0.225075 430.534 -0.00923087 431.214 0.000278479C432.133 0.0211452 433.012 0.382825 433.679 1.01509C434.347 1.64735 434.755 2.50506 434.826 3.42168C435.781 17.3968 435.399 31.4313 433.685 45.3339V48.9453L437.202 48.4701C441.834 47.8576 446.5 47.5402 451.173 47.5198C455.668 47.4256 460.152 48.0021 464.478 49.2305C465.351 49.5598 466.116 50.1251 466.686 50.8635C467.257 51.6019 467.611 52.4842 467.709 53.4122C467.806 54.1611 467.665 54.9214 467.307 55.5863C466.949 56.2512 466.392 56.7871 465.713 57.1187C455.876 61.3128 445.226 63.2608 434.541 62.821H431.975C431.975 62.821 431.309 72.3249 431.119 75.4612C430.622 89.0371 428.808 102.533 425.702 115.758C425.525 116.714 425.02 117.579 424.274 118.204C423.529 118.828 422.588 119.173 421.615 119.179V119.179Z" fill="#3167B9"/>
<path d="M324.106 499.999C323.111 500.022 322.136 499.718 321.33 499.135C320.523 498.551 319.93 497.72 319.64 496.768C316.669 484.319 316.088 471.418 317.929 458.752V455.521H311.751C309.09 455.521 306.334 455.521 303.673 455.521C296.981 455.986 290.317 454.287 284.665 450.674C284.352 450.474 284.117 450.172 284 449.819C291.793 444.408 301.271 441.979 310.706 442.976H318.309L319.64 440.41C319.701 426.764 322.956 413.322 329.144 401.159C329.315 400.917 329.544 400.721 329.809 400.589C330.074 400.456 330.368 400.391 330.664 400.399C331.018 400.398 331.364 400.507 331.653 400.712C331.943 400.916 332.162 401.205 332.28 401.539C334.629 412.929 334.886 424.651 333.04 436.133L332.375 442.501H335.606H353.283H365.163C365.99 442.474 366.813 442.618 367.582 442.925C368.35 443.232 369.046 443.694 369.626 444.284C370.207 444.873 370.659 445.576 370.954 446.349C371.249 447.122 371.381 447.947 371.341 448.773C371.393 449.616 371.271 450.46 370.984 451.254C370.697 452.048 370.25 452.775 369.672 453.389C369.093 454.004 368.394 454.493 367.619 454.827C366.843 455.161 366.008 455.333 365.163 455.331C354.994 455.331 344.73 455.331 334.561 455.331H331.519V463.599C332.085 474.77 331.093 485.965 328.573 496.863C328.317 497.791 327.756 498.605 326.98 499.174C326.204 499.743 325.258 500.034 324.297 499.999H324.106Z" fill="#3167B9"/>
<path d="M600.194 247.099C599.657 247.095 599.131 246.952 598.665 246.686C598.199 246.42 597.809 246.038 597.532 245.579C593.161 238.356 594.966 225.715 596.582 214.501L597.152 210.794H593.541C588.178 211.429 582.784 211.778 577.384 211.84C573.153 211.832 568.929 211.515 564.744 210.889C563.509 210.889 563.223 209.179 563.223 208.893C563.076 208.407 563.089 207.885 563.26 207.406C563.431 206.927 563.751 206.516 564.174 206.232C574.284 201.989 584.935 199.175 595.822 197.869H598.198V189.03C597.679 174.463 599.442 159.904 603.425 145.883C603.547 145.473 603.798 145.113 604.14 144.856C604.482 144.6 604.898 144.46 605.326 144.457C605.721 144.447 606.107 144.574 606.419 144.817C606.73 145.059 606.949 145.402 607.036 145.788C611.285 160.922 612.892 176.676 611.788 192.357V195.778L633.837 192.547H634.788C636.031 192.035 637.345 191.714 638.684 191.596L639.92 192.167L640.965 191.406L642.011 190.741C642.768 190.649 643.534 190.649 644.292 190.741C645.36 190.767 646.403 191.07 647.319 191.62C648.235 192.169 648.993 192.947 649.519 193.877C650.103 194.889 650.41 196.036 650.41 197.204C650.41 198.371 650.103 199.519 649.519 200.53C646.002 207.088 632.792 207.753 623.098 208.228C619.962 208.228 617.015 208.228 614.735 208.798L610.743 209.369V211.65C610.078 220.013 609.222 228.281 608.367 235.885L607.797 241.302C607.774 242.69 607.323 244.036 606.507 245.159C605.691 246.281 604.548 247.125 603.235 247.574L600.859 248.24L600.194 247.099Z" fill="#3167B9"/>
</g>
<g clip-path="url(#clip1)">
<path d="M47.3368 682.179C46.3771 682.125 45.4502 681.811 44.6565 681.268C43.8627 680.726 43.2323 679.978 42.8332 679.103C39.2071 664.711 38.9441 649.677 42.0644 635.166V630.883H37.8904C29.8883 632.095 21.8166 632.792 13.7252 632.97C9.10496 632.725 4.51273 632.1 -0.00506734 631.102C-0.0933878 630.913 -0.13916 630.707 -0.13916 630.498C-0.13916 630.289 -0.0933878 630.083 -0.00506734 629.894C12.4969 621.874 26.8097 617.116 41.625 616.054L43.9317 615.724V613.088C45.1746 597.158 48.083 581.401 52.6092 566.076C52.83 565.195 53.3394 564.414 54.0561 563.856C54.7728 563.299 55.6555 562.998 56.5635 563C57.1298 562.971 57.6963 563.056 58.2283 563.253C58.7604 563.449 59.2468 563.752 59.658 564.142C60.0692 564.533 60.3964 565.003 60.6198 565.525C60.8431 566.046 60.9579 566.607 60.9572 567.174C61.2779 581.342 60.5435 595.514 58.7603 609.573V613.747H62.8245C68.5045 612.978 74.228 612.574 79.9598 612.539C84.7577 612.486 89.5468 612.965 94.2392 613.967C95.1192 614.224 95.9027 614.738 96.4896 615.442C97.0765 616.146 97.4403 617.009 97.5345 617.921C97.6383 619.238 97.3078 620.552 96.5937 621.663C95.8795 622.774 94.821 623.62 93.5802 624.072C83.3831 626.664 72.9062 627.992 62.3851 628.027H56.893V630.883C56.893 635.166 56.893 639.34 56.234 643.624C56.719 656.084 54.5862 668.507 49.973 680.092C49.7908 680.583 49.4603 681.006 49.0274 681.301C48.5944 681.596 48.0804 681.749 47.5564 681.739L47.3368 682.179Z" fill="#3167B9"/>
<path d="M299.865 1063C297.868 1063.03 295.937 1062.28 294.482 1060.91C293.909 1060.27 293.467 1059.53 293.185 1058.72C292.902 1057.9 292.783 1057.05 292.835 1056.19C292.835 1047.84 292.835 1039.05 292.835 1029.94V1015.44H289.649C279.378 1015.33 269.2 1013.47 259.553 1009.94C258.781 1009.67 258.112 1009.17 257.64 1008.5C257.168 1007.83 256.915 1007.03 256.917 1006.21C256.93 1005.53 257.178 1004.87 257.618 1004.35C258.058 1003.83 258.663 1003.48 259.333 1003.35C269.296 1000.55 279.637 999.326 289.979 999.73H293.054V996.654C293.323 982.711 295.579 968.879 299.755 955.573C299.978 954.965 300.382 954.439 300.912 954.066C301.442 953.694 302.073 953.491 302.721 953.486C303.324 953.446 303.922 953.623 304.405 953.986C304.889 954.349 305.227 954.873 305.357 955.463C308.741 968.55 310.293 982.042 309.97 995.556V999.071H317L340.506 997.423C341.352 997.314 342.212 997.386 343.029 997.634C343.845 997.881 344.6 998.299 345.243 998.859C345.887 999.42 346.404 1000.11 346.761 1000.88C347.119 1001.66 347.308 1002.5 347.316 1003.35C347.501 1005.48 346.844 1007.59 345.488 1009.23C344.133 1010.87 342.186 1011.92 340.067 1012.14C331.609 1013.13 322.272 1014.23 312.606 1014.89H309.641L308.762 1029.94C308.213 1038.83 307.663 1047.51 307.554 1055.75C307.541 1056.72 307.331 1057.67 306.939 1058.55C306.546 1059.44 305.979 1060.23 305.27 1060.89C304.561 1061.54 303.726 1062.05 302.816 1062.38C301.906 1062.7 300.939 1062.84 299.975 1062.78L299.865 1063Z" fill="#3167B9"/>
</g>
<defs>
<clipPath id="clip0">
<rect width="366.565" height="500" fill="white" transform="translate(284)"/>
</clipPath>
<clipPath id="clip1">
<rect width="347.21" height="500" fill="white" transform="translate(0 563)"/>
</clipPath>
</defs>
</svg>
