<svg width="40" height="39" viewBox="0 0 40 39" fill="none" xmlns="http://www.w3.org/2000/svg">
<g clip-path="url(#clip0)">
<path d="M16.53 10.6301C16.518 10.5133 16.4804 10.4007 16.42 10.3001C16.3291 8.4525 15.845 6.64559 15 5.00008C12.07 -0.859925 5.45 -0.479924 1.76 4.33008C0.965008 5.32334 0.421661 6.49392 0.176173 7.74225C-0.0693143 8.99058 -0.00968039 10.2797 0.350004 11.5001C0.526459 11.9301 0.744142 12.342 1 12.7301C2.11 16.1601 6.44 18.1901 10 17.8701C10.3665 17.8361 10.7305 17.7793 11.09 17.7001C11.4406 17.8172 11.8205 17.8118 12.1676 17.6846C12.5147 17.5574 12.8082 17.316 13 17.0001C13.2067 16.8953 13.4071 16.7785 13.6 16.6501C12.4306 20.002 10.7435 23.1502 8.6 25.9801C5.92 29.6901 1.6 32.6901 0.100004 37.0901C0.0278412 37.3072 0.0203688 37.5407 0.0784961 37.762C0.136623 37.9833 0.257843 38.1829 0.427394 38.3366C0.596946 38.4902 0.807515 38.5913 1.03346 38.6274C1.25941 38.6635 1.49099 38.6332 1.7 38.5401C6.76 36.8001 11.3 30.6701 13.78 26.1201C16.3563 21.393 17.3217 15.9551 16.53 10.6301V10.6301Z" fill="#0C4EA2"/>
<path d="M39.55 10.2299C39.7429 9.03094 39.6872 7.80514 39.3864 6.6286C39.0856 5.45207 38.5462 4.34993 37.8016 3.39061C37.0571 2.43129 36.1232 1.63527 35.0581 1.05198C33.993 0.468693 32.8194 0.110587 31.61 -0.00010249C26.86 -0.390102 24.48 3.5099 24.26 7.5199C22.92 10.6699 24.51 14.2599 27.56 16.5199C29.18 17.7299 31.56 19.1599 33.56 19.1199C34.1181 19.1033 34.6721 19.0194 35.21 18.8699C34.5861 21.2594 33.4726 23.4933 31.94 25.4299C29.29 28.7299 24.94 31.4299 24.88 36.0399C24.8681 36.2462 24.9091 36.4522 24.9993 36.6381C25.0895 36.8241 25.2258 36.9838 25.3953 37.1022C25.5648 37.2205 25.7617 37.2934 25.9673 37.314C26.173 37.3346 26.3805 37.3022 26.57 37.2199C30.77 35.4499 34.2 30.7999 36.57 27.0699C38.3566 24.129 39.2688 20.7402 39.2 17.2999C39.7804 14.9892 39.8993 12.5867 39.55 10.2299V10.2299Z" fill="#0C4EA2"/>
</g>
<defs>
<clipPath id="clip0">
<rect width="39.77" height="38.62" fill="white"/>
</clipPath>
</defs>
</svg>
