<svg width="80" height="19" viewBox="0 0 80 19" fill="none" xmlns="http://www.w3.org/2000/svg">
<path d="M78.3448 14.909C77.9901 14.909 77.7305 14.8489 77.5658 14.7287C77.4011 14.6219 77.2998 14.475 77.2618 14.2881C77.2238 14.1012 77.2048 13.8942 77.2048 13.6672V2.11071C77.2048 1.89707 77.2238 1.69679 77.2618 1.50985C77.3125 1.32292 77.4138 1.17604 77.5658 1.06922C77.7305 0.962406 77.9965 0.908997 78.3638 0.908997C78.7185 0.908997 78.9718 0.962406 79.1238 1.06922C79.2885 1.17604 79.3898 1.32292 79.4278 1.50985C79.4785 1.69679 79.5038 1.90375 79.5038 2.13074V13.6873C79.5038 13.9142 79.4785 14.1212 79.4278 14.3081C79.3898 14.4817 79.2885 14.6219 79.1238 14.7287C78.9591 14.8489 78.6995 14.909 78.3448 14.909Z" fill="black"/>
<path d="M75.8234 13.2063C75.94 13.4581 75.9983 13.6834 75.9983 13.8822C76.0099 14.0678 75.9633 14.2334 75.8583 14.3792C75.7534 14.5117 75.5785 14.6509 75.3337 14.7967C74.9607 14.9955 74.6692 15.0485 74.4593 14.9557C74.2612 14.8629 74.0746 14.6045 73.8997 14.1804L70 4.81695L66.1177 14.1804C65.9429 14.5913 65.7505 14.8364 65.5407 14.916C65.3308 15.0087 65.0393 14.9623 64.6663 14.7768C64.4331 14.6443 64.2582 14.5051 64.1417 14.3593C64.0367 14.2135 63.9901 14.0412 64.0017 13.8424C64.0251 13.6304 64.1008 13.3786 64.2291 13.087L69.0382 1.6958C69.1315 1.48375 69.2655 1.31808 69.4404 1.1988C69.6269 1.06627 69.8193 1 70.0175 1C70.1574 1 70.2856 1.02651 70.4022 1.07952C70.5188 1.13253 70.6237 1.21205 70.717 1.31808C70.8219 1.42411 70.9094 1.55664 70.9793 1.71568L75.8234 13.2063ZM66.8872 11.2779L67.7266 9.2303H72.2909L73.1303 11.2779H66.8872Z" fill="black"/>
<path d="M53.635 15.304C52.8117 15.304 52.0897 15.171 51.469 14.905C50.861 14.639 50.348 14.278 49.93 13.822C49.5247 13.3533 49.2143 12.834 48.999 12.264C48.7963 11.6813 48.695 11.0797 48.695 10.459C48.695 9.547 48.904 8.73633 49.322 8.027C49.74 7.31767 50.3163 6.76033 51.051 6.355C51.7983 5.94967 52.6533 5.747 53.616 5.747C54.3 5.747 54.9017 5.85467 55.421 6.07C55.9403 6.28534 56.371 6.57034 56.713 6.925C57.0677 7.267 57.3337 7.647 57.511 8.065C57.701 8.483 57.796 8.88833 57.796 9.281C57.796 9.95233 57.6313 10.44 57.302 10.744C56.9853 11.048 56.5863 11.2 56.105 11.2H51.089C51.1017 11.6307 51.2347 12.0043 51.488 12.321C51.754 12.6377 52.0833 12.8847 52.476 13.062C52.8813 13.2267 53.293 13.309 53.711 13.309C54.0277 13.309 54.3063 13.29 54.547 13.252C54.8003 13.214 55.0157 13.1697 55.193 13.119C55.3703 13.0557 55.5223 12.9923 55.649 12.929C55.7883 12.8657 55.915 12.8087 56.029 12.758C56.143 12.7073 56.2507 12.6757 56.352 12.663C56.4913 12.6503 56.6307 12.682 56.77 12.758C56.9093 12.834 57.0233 12.967 57.112 13.157C57.188 13.2837 57.2387 13.404 57.264 13.518C57.302 13.6193 57.321 13.7207 57.321 13.822C57.321 14.0753 57.169 14.316 56.865 14.544C56.561 14.7593 56.1303 14.9367 55.573 15.076C55.0283 15.228 54.3823 15.304 53.635 15.304ZM51.089 9.851H54.984C55.1993 9.851 55.364 9.81933 55.478 9.756C55.592 9.68 55.649 9.528 55.649 9.3C55.649 9.00867 55.5603 8.749 55.383 8.521C55.2057 8.28034 54.965 8.09667 54.661 7.97C54.357 7.83067 54.0023 7.761 53.597 7.761C53.1283 7.761 52.704 7.856 52.324 8.046C51.944 8.22333 51.64 8.47033 51.412 8.787C51.1967 9.10367 51.089 9.45834 51.089 9.851Z" fill="black"/>
<path d="M46.8517 15.19C46.383 15.19 45.965 15.1583 45.5977 15.095C45.243 15.0317 44.9327 14.924 44.6667 14.772C44.4134 14.62 44.2044 14.4173 44.0397 14.164C43.875 13.898 43.7484 13.575 43.6597 13.195C43.5837 12.815 43.5457 12.359 43.5457 11.827V2.669C43.5457 2.45367 43.5647 2.26367 43.6027 2.099C43.6534 1.92167 43.7547 1.78234 43.9067 1.681C44.0714 1.567 44.331 1.51 44.6857 1.51C45.0404 1.51 45.2937 1.56067 45.4457 1.662C45.6104 1.76334 45.7117 1.90267 45.7497 2.08C45.8004 2.24467 45.8257 2.43467 45.8257 2.65V11.732C45.8257 11.9727 45.8384 12.1753 45.8637 12.34C45.9017 12.492 45.9587 12.6187 46.0347 12.72C46.1234 12.8087 46.231 12.872 46.3577 12.91C46.497 12.948 46.6617 12.967 46.8517 12.967C47.0164 12.967 47.162 12.986 47.2887 13.024C47.428 13.062 47.5357 13.157 47.6117 13.309C47.7004 13.461 47.7447 13.708 47.7447 14.05C47.7447 14.4047 47.7004 14.6643 47.6117 14.829C47.5357 14.9937 47.428 15.095 47.2887 15.133C47.1494 15.171 47.0037 15.19 46.8517 15.19Z" fill="black"/>
<path d="M37.6846 15.057C37.064 15.057 36.5066 14.943 36.0126 14.715C35.5313 14.4743 35.1196 14.145 34.7776 13.727C34.4483 13.2963 34.195 12.8023 34.0176 12.245C33.853 11.6877 33.7706 11.086 33.7706 10.44C33.7833 9.794 33.8783 9.19233 34.0556 8.635C34.233 8.065 34.4863 7.571 34.8156 7.153C35.1576 6.735 35.5693 6.40567 36.0506 6.165C36.532 5.92433 37.0766 5.804 37.6846 5.804C38.2673 5.804 38.812 5.92433 39.3186 6.165C39.838 6.40567 40.294 6.74133 40.6866 7.172C41.092 7.60267 41.4086 8.103 41.6366 8.673C41.8646 9.23033 41.9786 9.832 41.9786 10.478C41.9786 11.1367 41.8646 11.7447 41.6366 12.302C41.4086 12.8593 41.0983 13.347 40.7056 13.765C40.313 14.1703 39.857 14.487 39.3376 14.715C38.8183 14.943 38.2673 15.057 37.6846 15.057ZM33.8846 19.009C33.5426 19.009 33.2893 18.9583 33.1246 18.857C32.96 18.7557 32.8586 18.6227 32.8206 18.458C32.7826 18.2933 32.7636 18.1033 32.7636 17.888V6.963C32.7636 6.74767 32.7826 6.55767 32.8206 6.393C32.8586 6.22833 32.9536 6.09533 33.1056 5.994C33.2703 5.88 33.5236 5.823 33.8656 5.823C34.195 5.823 34.4546 5.87367 34.6446 5.975C34.8346 6.07633 34.9613 6.24733 35.0246 6.488V17.869C35.0373 18.0843 35.0183 18.2743 34.9676 18.439C34.9296 18.6163 34.8283 18.7557 34.6636 18.857C34.499 18.9583 34.2393 19.009 33.8846 19.009ZM37.3806 12.929C37.824 12.929 38.223 12.8277 38.5776 12.625C38.9323 12.4097 39.211 12.1183 39.4136 11.751C39.629 11.371 39.7366 10.9467 39.7366 10.478C39.7366 9.99667 39.629 9.57233 39.4136 9.205C39.211 8.83767 38.9323 8.55267 38.5776 8.35C38.223 8.13467 37.824 8.027 37.3806 8.027C36.95 8.027 36.5573 8.13467 36.2026 8.35C35.848 8.56533 35.563 8.85667 35.3476 9.224C35.145 9.57867 35.0436 9.99667 35.0436 10.478C35.0436 10.9467 35.145 11.371 35.3476 11.751C35.563 12.1183 35.848 12.4097 36.2026 12.625C36.5573 12.8277 36.95 12.929 37.3806 12.929Z" fill="black"/>
<path d="M18.505 15.171C18.163 15.171 17.9097 15.1203 17.745 15.019C17.593 14.9177 17.498 14.7783 17.46 14.601C17.422 14.4237 17.403 14.2337 17.403 14.031V6.925C17.403 6.72233 17.422 6.53867 17.46 6.374C17.498 6.20933 17.5994 6.07633 17.764 5.975C17.9287 5.87367 18.1884 5.823 18.543 5.823C18.9104 5.823 19.1764 5.899 19.341 6.051C19.5184 6.203 19.607 6.44367 19.607 6.773L19.436 7.305C19.4994 7.16567 19.607 7.01367 19.759 6.849C19.911 6.68433 20.0947 6.51967 20.31 6.355C20.538 6.19033 20.7914 6.05733 21.07 5.956C21.3487 5.85467 21.64 5.804 21.944 5.804C22.362 5.804 22.742 5.87367 23.084 6.013C23.4387 6.15233 23.749 6.355 24.015 6.621C24.2937 6.887 24.5344 7.21 24.737 7.59C24.9524 7.26067 25.193 6.963 25.459 6.697C25.725 6.41833 26.0354 6.203 26.39 6.051C26.7447 5.88633 27.1437 5.804 27.587 5.804C28.3217 5.804 28.936 5.98767 29.43 6.355C29.9367 6.72233 30.3167 7.248 30.57 7.932C30.836 8.60333 30.969 9.40767 30.969 10.345V14.031C30.969 14.2463 30.9437 14.4427 30.893 14.62C30.855 14.7847 30.7537 14.9177 30.589 15.019C30.437 15.1203 30.1837 15.171 29.829 15.171C29.4744 15.171 29.2147 15.114 29.05 15C28.8854 14.8987 28.784 14.7657 28.746 14.601C28.708 14.4237 28.689 14.2273 28.689 14.012V10.326C28.689 9.85733 28.632 9.452 28.518 9.11C28.404 8.768 28.233 8.502 28.005 8.312C27.7897 8.122 27.5047 8.027 27.15 8.027C26.77 8.027 26.4407 8.122 26.162 8.312C25.896 8.48933 25.687 8.749 25.535 9.091C25.383 9.433 25.307 9.851 25.307 10.345V14.05C25.307 14.2653 25.2754 14.468 25.212 14.658C25.1487 14.8353 25.022 14.9683 24.832 15.057C24.6547 15.1583 24.395 15.1963 24.053 15.171C23.7364 15.1583 23.502 15.095 23.35 14.981C23.2107 14.867 23.122 14.7277 23.084 14.563C23.0587 14.3857 23.046 14.202 23.046 14.012V10.326C23.046 9.85733 22.989 9.452 22.875 9.11C22.761 8.75533 22.59 8.48933 22.362 8.312C22.1467 8.122 21.8554 8.027 21.488 8.027C21.0954 8.027 20.7597 8.12833 20.481 8.331C20.215 8.53367 20.0124 8.806 19.873 9.148C19.7337 9.49 19.664 9.88267 19.664 10.326V14.05C19.664 14.2527 19.6387 14.4427 19.588 14.62C19.55 14.7973 19.4487 14.9303 19.284 15.019C19.132 15.1203 18.8724 15.171 18.505 15.171Z" fill="black"/>
<path d="M14.1845 15.19C13.8425 15.19 13.5891 15.133 13.4245 15.019C13.2598 14.9177 13.1585 14.7847 13.1205 14.62C13.0825 14.4427 13.0635 14.2463 13.0635 14.031V6.963C13.0635 6.76033 13.0825 6.57666 13.1205 6.412C13.1711 6.23466 13.2725 6.09533 13.4245 5.994C13.5891 5.89266 13.8488 5.842 14.2035 5.842C14.5581 5.842 14.8115 5.89266 14.9635 5.994C15.1281 6.09533 15.2295 6.23466 15.2675 6.412C15.3055 6.58933 15.3245 6.78566 15.3245 7.001V14.05C15.3245 14.2653 15.3055 14.4617 15.2675 14.639C15.2295 14.8037 15.1281 14.9367 14.9635 15.038C14.8115 15.1393 14.5518 15.19 14.1845 15.19ZM14.1845 3.999C13.8171 3.999 13.5448 3.94833 13.3675 3.847C13.2028 3.733 13.0951 3.581 13.0445 3.391C13.0065 3.201 12.9875 2.992 12.9875 2.764C12.9875 2.52333 13.0065 2.31433 13.0445 2.137C13.0951 1.95966 13.2091 1.82033 13.3865 1.719C13.5638 1.605 13.8361 1.548 14.2035 1.548C14.5835 1.548 14.8558 1.605 15.0205 1.719C15.1851 1.833 15.2928 1.985 15.3435 2.175C15.3941 2.35233 15.4195 2.56133 15.4195 2.802C15.4195 3.01733 15.3941 3.22 15.3435 3.41C15.2928 3.6 15.1851 3.74566 15.0205 3.847C14.8558 3.94833 14.5771 3.999 14.1845 3.999Z" fill="black"/>
<path d="M5.40486 15C4.72529 15 4.10612 14.9286 3.54736 14.7858C3.00371 14.643 2.52046 14.4613 2.09761 14.2406C1.68987 14.0199 1.34253 13.7928 1.0556 13.5591C0.768671 13.3255 0.557249 13.1113 0.421334 12.9166C0.225014 12.6829 0.0966502 12.4752 0.0362438 12.2935C-0.0241626 12.1117 -0.00906088 11.9365 0.0815487 11.7677C0.18726 11.586 0.37603 11.3978 0.647858 11.2031C0.919687 10.9954 1.16886 10.8915 1.39539 10.8915C1.63701 10.8785 1.86354 10.9369 2.07496 11.0668C2.30148 11.1966 2.52046 11.3783 2.73188 11.612C3.09432 12.0274 3.50206 12.3259 3.95511 12.5077C4.40816 12.6764 4.8612 12.7608 5.31425 12.7608C5.90321 12.7608 6.41667 12.6959 6.85461 12.5661C7.29256 12.4233 7.63234 12.2156 7.87397 11.943C8.1307 11.6704 8.25906 11.3199 8.25906 10.8915C8.25906 10.541 8.1307 10.2554 7.87397 10.0348C7.63234 9.80111 7.30766 9.6064 6.89992 9.45063C6.49217 9.28187 6.03158 9.13259 5.51812 9.00278C5.01977 8.85999 4.51387 8.70422 4.00041 8.53547C3.63797 8.43162 3.27554 8.3083 2.9131 8.16551C2.55066 8.00974 2.21087 7.83449 1.89374 7.63978C1.59171 7.44506 1.31988 7.2179 1.07825 6.95828C0.85173 6.68568 0.670511 6.37413 0.534597 6.02364C0.398682 5.67316 0.330725 5.26426 0.330725 4.79694C0.330725 4.05702 0.542147 3.40797 0.964992 2.84979C1.38784 2.27863 1.9768 1.83078 2.73188 1.50626C3.48696 1.16875 4.34775 1 5.31425 1C5.93342 1 6.48462 1.05192 6.96787 1.15577C7.46623 1.24664 7.88907 1.36996 8.23641 1.52573C8.59885 1.66852 8.89333 1.8178 9.11985 1.97357C9.36148 2.11637 9.53515 2.23968 9.64086 2.34353C9.98819 2.6421 10.177 2.89523 10.2072 3.10292C10.2525 3.29764 10.1166 3.56375 9.79942 3.90125C9.48229 4.25174 9.17271 4.44645 8.87068 4.4854C8.58375 4.51136 8.25906 4.40751 7.89662 4.17385C7.655 3.95318 7.41337 3.77793 7.17175 3.64812C6.93012 3.50533 6.65829 3.40148 6.35626 3.33658C6.06933 3.27167 5.71444 3.23922 5.2916 3.23922C4.98957 3.23922 4.69509 3.27816 4.40816 3.35605C4.13633 3.42096 3.90225 3.5248 3.70593 3.66759C3.50961 3.7974 3.35104 3.95967 3.23023 4.15438C3.12452 4.3491 3.07166 4.56977 3.07166 4.81641C3.07166 5.15392 3.17738 5.43301 3.3888 5.65369C3.61532 5.86138 3.91735 6.03663 4.29489 6.17942C4.67243 6.30923 5.09528 6.43255 5.56343 6.54937C6.03158 6.6662 6.50728 6.78952 6.99053 6.91933C7.48888 7.06212 7.97968 7.23088 8.46293 7.42559C8.94618 7.62031 9.37658 7.86694 9.75412 8.16551C10.1317 8.45109 10.4337 8.81456 10.6602 9.25591C10.8867 9.68428 11 10.21 11 10.8331C11 11.5471 10.8414 12.1701 10.5243 12.7024C10.2072 13.2346 9.77677 13.6694 9.23311 14.007C8.68946 14.3445 8.08539 14.5911 7.42092 14.7469C6.75645 14.9156 6.08443 15 5.40486 15Z" fill="black"/>
</svg>
