<svg width="500" height="126" viewBox="0 0 500 126" fill="none" xmlns="http://www.w3.org/2000/svg">
<g clip-path="url(#clip0)">
<path d="M0.964257 97.2235C6.86977 102.538 16.102 101.613 23.4642 104.448C29.9603 106.928 37.4012 109.035 44.2713 111.889C45.451 113.104 46.714 114.235 48.0508 115.275C50.0193 116.672 52.2831 117.716 54.3894 118.995C55.4721 120.235 56.4957 121.495 57.4012 122.755C57.6132 123.09 57.9028 123.368 58.2457 123.567C58.5884 123.766 58.974 123.879 59.3697 123.897C60.3933 125.255 62.5784 123.661 62.3422 122.184C62.3036 121.951 62.251 121.722 62.1847 121.495C62.2488 120.93 62.1168 120.36 61.8107 119.881C61.5941 119.566 61.3382 119.271 61.1217 118.956L61.0036 118.798C56.5492 112.565 51.1959 107.026 45.1177 102.361C59.4008 104.937 73.9238 105.934 88.4248 105.334C109.311 107.164 130.177 107.125 150.098 102.873C164.842 99.7432 181.122 94.6841 194.37 86.4361H194.468C194.75 86.6883 195.099 86.854 195.472 86.9133C195.846 86.9727 196.228 86.9231 196.574 86.7707C207.027 94.192 220.453 96.3377 234.527 95.1959C246.307 95.217 257.996 93.1509 269.055 89.0936C279.1 85.492 288.59 80.4955 297.244 74.2511C299.212 77.3022 301.319 80.1566 303.327 82.9125C316.614 100.786 325.275 113.365 349.429 115.058C366.949 116.279 386.831 112.204 402.854 106.121C443.228 90.944 482.657 57.814 499.882 19.8219C500.59 18.2274 497.913 17.6762 497.185 19.1329C482.677 50.7865 453.405 76.2196 422.244 93.3849C406.819 101.682 390.088 107.281 372.775 109.94C346.142 114.409 327.913 108.956 312.067 87.007C308.642 82.2629 304.547 77.066 300.649 71.5936C303.714 69.1912 306.64 66.6148 309.409 63.877C319.134 56.003 328.681 45.9046 332.086 34.4479C333.159 31.8217 333.823 29.0467 334.055 26.2196C334.431 21.3089 333.309 16.3996 330.838 12.1388C328.368 7.87804 324.665 4.46566 320.218 2.35137C315.77 0.237081 310.785 -0.479877 305.921 0.294979C301.057 1.06984 296.543 3.30015 292.972 6.69198C273.996 24.1723 281.378 47.6763 292.972 67.1841C288.214 70.1329 283.299 72.8205 278.248 75.2353C261.771 83.1093 238.228 91.2392 217.677 88.6015C213.649 87.5749 209.758 86.0749 206.083 84.1329C204.527 83.3062 202.972 82.4203 201.437 81.5148C210.457 74.8007 216.894 65.1881 219.665 54.2904C224.744 32.8534 206.87 -3.30802 178.464 10.5109C173.476 12.759 169.19 16.3168 166.063 20.8062C163.7 23.4485 161.972 26.5953 161.01 30.0066C160.048 33.418 159.878 37.0038 160.511 40.4912C163.504 54.7825 176.87 70.3731 188.819 81.3377C167.441 92.7747 144.803 95.314 117.952 97.4597L103.11 98.6211C76.6335 97.0463 49.6847 92.3219 24.5272 90.7471C23.9677 90.6329 23.4026 90.5475 22.8343 90.4912C30.0309 86.9241 37.0353 82.9818 43.8185 78.6802C50.5902 74.3101 62.0666 65.1566 62.3225 56.8495C62.3225 54.566 58.9957 52.2038 57.4012 54.7629C56.2366 56.6223 54.9612 58.4103 53.5823 60.1172C53.1103 60.1396 52.6492 60.2682 52.2335 60.493C51.8177 60.718 51.4579 61.0335 51.1807 61.4164C45.1177 68.6211 35.7477 72.5385 27.8343 77.6566C21.2538 81.9688 14.3425 85.7534 7.16503 88.9755C4.74831 89.8044 2.58574 91.2416 0.885502 93.1487C0.622167 93.4209 0.415242 93.7424 0.276622 94.095C0.138 94.4473 0.0703571 94.8237 0.0776863 95.2024C0.0850152 95.5812 0.167106 95.9546 0.319244 96.3014C0.471382 96.6483 0.69059 96.9617 0.964257 97.2235ZM293.307 14.2904C303.332 3.58174 312.612 2.10537 321.142 9.86127C332.106 21.4361 325.669 37.5778 315.236 48.8574C309.547 54.9967 303.159 60.4475 296.201 65.0975C291.634 57.9125 287.953 50.4322 286.929 43.0306C285.748 34.3692 287.716 21.2983 293.307 14.2904ZM167.145 38.8574C166.555 33.0503 167.736 27.3416 172.244 23.4833L189.468 16.9479C203.386 17.3416 210.118 32.007 210.079 43.8574C210.079 54.9597 206.338 63.3652 201.457 72.5385C199.909 74.0784 198.266 75.5184 196.535 76.8495L196.161 77.1251L195.295 77.6959C194.252 76.9676 193.228 76.2392 192.204 75.4715C183.759 65.0778 170.59 50.9046 167.204 38.8574H167.145Z" fill="white"/>
</g>
<defs>
<clipPath id="clip0">
<rect width="500" height="125.984" fill="white"/>
</clipPath>
</defs>
</svg>
