<svg width="56" height="56" viewBox="0 0 56 56" fill="none" xmlns="http://www.w3.org/2000/svg">
<g clip-path="url(#clip0)">
<mask id="path-1-outside-1" maskUnits="userSpaceOnUse" x="0.52124" y="-0.599609" width="55" height="58" fill="black">
<rect fill="white" x="0.52124" y="-0.599609" width="55" height="58"/>
<path d="M50.8656 38.0703C51.7138 37.6775 52.4675 37.1052 53.0746 36.3929C53.6816 35.6806 54.1281 34.8451 54.3831 33.9436C54.5343 33.0028 54.4331 32.0386 54.0897 31.1502C53.7462 30.2617 53.1728 29.481 52.4291 28.8885C51.8758 28.46 51.2337 28.1615 50.5501 28.0151C49.8661 27.8686 49.1587 27.878 48.4792 28.0425C49.5761 27.3042 50.3545 26.1781 50.6595 24.8891C50.9649 23.6001 50.7737 22.2431 50.1249 21.0892C48.253 17.5403 39.8392 19.3767 36.8973 20.0163C36.6225 20.063 36.3536 20.1391 36.095 20.2432C36.7738 14.9405 39.0163 9.14265 36.8973 3.98438C35.4572 0.559307 32.0012 -0.967537 29.1006 1.92109C28.0952 3.34256 27.6217 5.0741 27.7634 6.81111C27.6194 10.4632 28.2366 13.1867 26.3234 16.6324C24.6365 19.6655 19.3702 24.8857 20.6045 29.0123C19.6376 31.0756 16.9221 31.1994 14.9061 31.0756C14.9061 30.9105 14.9061 30.7454 14.9061 30.5804C14.721 29.4868 14.6181 28.3726 14.4535 27.2791C14.4305 27.1676 14.3698 27.0675 14.2817 26.9956C14.1937 26.9237 14.0836 26.8845 13.9701 26.8845C13.8565 26.8845 13.7465 26.9237 13.6584 26.9956C13.5703 27.0675 13.5097 27.1676 13.4866 27.2791C10.7712 26.0205 6.26597 25.2158 3.67393 26.4744C-0.460986 28.4758 2.52192 34.4181 3.13907 37.5133C3.85909 41.2063 4.96994 44.7966 5.66938 48.49C6.08083 50.677 5.66938 53.2974 7.45914 54.886C10.154 57.1764 16.0169 55.3814 19.041 54.7829C19.2328 54.7284 19.4014 54.6119 19.5204 54.4514C19.6394 54.2909 19.7023 54.0956 19.6993 53.8959C19.6923 52.9868 19.5034 52.0889 19.1439 51.2545C20.4393 51.1366 21.7205 50.8947 22.9702 50.5325C25.8447 50.0584 28.777 50.0584 31.6515 50.5325C34.7578 50.8215 39.1806 51.8944 41.9373 49.831V49.728C42.9113 50.3418 44.0373 50.6707 45.1875 50.677C47.8001 50.8006 52.3876 48.7995 51.215 45.4361C52.083 45.2028 52.8584 44.7074 53.436 44.0171C54.0139 43.3272 54.3659 42.4756 54.4451 41.5777C54.4656 39.2463 52.7374 38.2764 50.8656 38.0703ZM50.3306 29.363C53.1694 29.817 53.4162 33.696 51.9557 35.4085C50.2962 36.8846 48.2168 37.8011 46.0104 38.0288C43.8891 38.4309 41.7219 38.5351 39.5715 38.3383C38.9667 38.3312 38.372 38.1841 37.8332 37.9086C37.2943 37.6331 36.8262 37.2364 36.4653 36.7497C35.8893 35.9656 34.7784 33.6753 36.7121 33.5722C36.8177 33.5699 36.9216 33.5457 37.0172 33.501C37.113 33.4563 37.1983 33.3922 37.268 33.3126C37.3375 33.2331 37.3901 33.1399 37.4218 33.0389C37.4536 32.938 37.464 32.8315 37.4528 32.7262C39.7119 32.2931 41.9138 31.6008 44.0149 30.6629C44.9628 30.2689 45.8778 29.7998 46.7511 29.2599C47.9453 29.2117 49.1411 29.2462 50.3306 29.363ZM39.6745 21.1098C42.1841 20.9035 45.8461 20.3051 48.0883 21.3987C50.9272 22.7398 48.191 26.3506 46.8952 27.3204C45.6281 28.2001 44.2426 28.8948 42.7807 29.3837C39.9418 30.4772 35.7247 32.6643 33.3795 29.5487C33.3006 29.4322 33.1926 29.3384 33.0662 29.2769C32.9399 29.2153 32.7996 29.1881 32.6595 29.198C30.952 24.5762 35.6629 21.4193 39.6745 21.0067V21.1098ZM16.6341 53.4005C14.7053 53.8026 12.7412 54.0098 10.7712 54.0195C7.1094 54.0195 6.65685 44.8377 5.95741 42.0317C4.62046 38.0923 3.72355 34.0166 3.28307 29.8789C3.1185 26.4331 10.5655 28.1457 13.2604 28.4552C13.1997 29.0727 13.1997 29.6947 13.2604 30.3122C13.3487 31.7667 13.569 33.2101 13.9187 34.6245C14.1861 36.1101 14.6592 37.5749 15.0501 39.0398C15.8018 42.7093 16.2355 46.4374 16.3461 50.1816C16.3443 50.3843 16.4101 50.5818 16.5332 50.7427C16.6562 50.9036 16.8293 51.0182 17.025 51.069V51.2755C18.321 53.5655 18.321 53.091 16.6341 53.4005ZM40.9088 48.49C38.5019 49.831 35.087 49.0676 32.4743 48.7581C29.516 48.2709 26.5048 48.1943 23.5257 48.5311C21.6742 48.882 18.2799 50.5945 18.033 47.7676C17.9507 45.7662 17.6833 43.7031 17.5187 41.6397C17.2307 38.6478 15.7495 35.8418 15.4615 32.85C17.6627 32.85 20.3987 32.2929 21.3656 30.4978C21.8799 30.828 22.6822 30.3121 22.2913 29.6725C20.1519 26.2681 26.1794 20.14 27.784 17.5197C29.8411 14.4247 29.5326 11.1853 29.368 7.67769C29.2446 5.1811 29.6971 1.4878 33.1943 1.85919C35.1281 2.10679 35.7041 5.13985 35.9921 6.66671C36.8561 11.3298 34.8401 16.5293 34.3052 21.213C31.5075 23.2763 29.8411 27.4029 32.0012 30.3534C32.2334 30.8627 32.5666 31.3193 32.9804 31.6952C33.3942 32.0713 33.8799 32.3588 34.4081 32.5405C34.0772 33.3453 33.9473 34.219 34.0298 35.0857C34.1122 35.9523 34.4045 36.7856 34.8812 37.5133C35.2444 38.0942 35.7217 38.5952 36.284 38.9853C36.8463 39.3755 37.4819 39.6469 38.1521 39.7828C37.7231 40.5597 37.5805 41.4631 37.75 42.3349C37.9191 43.2066 38.3895 43.9906 39.0779 44.5491C39.5887 45.0692 40.1968 45.4828 40.8677 45.7662C40.6549 46.1739 40.544 46.6267 40.544 47.0867C40.544 47.5466 40.6549 47.9998 40.8677 48.4075L40.9088 48.49ZM48.8081 47.9946C47.8057 48.5804 46.6547 48.86 45.4963 48.7995C44.5719 48.838 43.6632 48.5539 42.9248 47.9946C42.4103 47.5615 42.5544 46.9631 42.5749 46.3646C44.8792 46.6835 47.2237 46.5289 49.4667 45.9107C49.6929 45.9107 49.9192 45.7871 50.1454 45.7251C50.0935 46.1761 49.9479 46.6114 49.7176 47.0023C49.4872 47.3935 49.1773 47.7314 48.8081 47.9946ZM52.5317 42.6921C51.5585 43.5758 50.3373 44.1377 49.0347 44.3012C46.0104 45.0236 37.4939 45.0236 40.2091 40.1748C41.7936 40.2196 43.378 40.1091 44.9408 39.8447C45.9077 39.6797 46.9978 39.4938 48.0058 39.2048H48.1499C49.6929 39.5763 54.6919 39.9063 52.4907 42.6921H52.5317Z"/>
</mask>
<path d="M50.8656 38.0703C51.7138 37.6775 52.4675 37.1052 53.0746 36.3929C53.6816 35.6806 54.1281 34.8451 54.3831 33.9436C54.5343 33.0028 54.4331 32.0386 54.0897 31.1502C53.7462 30.2617 53.1728 29.481 52.4291 28.8885C51.8758 28.46 51.2337 28.1615 50.5501 28.0151C49.8661 27.8686 49.1587 27.878 48.4792 28.0425C49.5761 27.3042 50.3545 26.1781 50.6595 24.8891C50.9649 23.6001 50.7737 22.2431 50.1249 21.0892C48.253 17.5403 39.8392 19.3767 36.8973 20.0163C36.6225 20.063 36.3536 20.1391 36.095 20.2432C36.7738 14.9405 39.0163 9.14265 36.8973 3.98438C35.4572 0.559307 32.0012 -0.967537 29.1006 1.92109C28.0952 3.34256 27.6217 5.0741 27.7634 6.81111C27.6194 10.4632 28.2366 13.1867 26.3234 16.6324C24.6365 19.6655 19.3702 24.8857 20.6045 29.0123C19.6376 31.0756 16.9221 31.1994 14.9061 31.0756C14.9061 30.9105 14.9061 30.7454 14.9061 30.5804C14.721 29.4868 14.6181 28.3726 14.4535 27.2791C14.4305 27.1676 14.3698 27.0675 14.2817 26.9956C14.1937 26.9237 14.0836 26.8845 13.9701 26.8845C13.8565 26.8845 13.7465 26.9237 13.6584 26.9956C13.5703 27.0675 13.5097 27.1676 13.4866 27.2791C10.7712 26.0205 6.26597 25.2158 3.67393 26.4744C-0.460986 28.4758 2.52192 34.4181 3.13907 37.5133C3.85909 41.2063 4.96994 44.7966 5.66938 48.49C6.08083 50.677 5.66938 53.2974 7.45914 54.886C10.154 57.1764 16.0169 55.3814 19.041 54.7829C19.2328 54.7284 19.4014 54.6119 19.5204 54.4514C19.6394 54.2909 19.7023 54.0956 19.6993 53.8959C19.6923 52.9868 19.5034 52.0889 19.1439 51.2545C20.4393 51.1366 21.7205 50.8947 22.9702 50.5325C25.8447 50.0584 28.777 50.0584 31.6515 50.5325C34.7578 50.8215 39.1806 51.8944 41.9373 49.831V49.728C42.9113 50.3418 44.0373 50.6707 45.1875 50.677C47.8001 50.8006 52.3876 48.7995 51.215 45.4361C52.083 45.2028 52.8584 44.7074 53.436 44.0171C54.0139 43.3272 54.3659 42.4756 54.4451 41.5777C54.4656 39.2463 52.7374 38.2764 50.8656 38.0703ZM50.3306 29.363C53.1694 29.817 53.4162 33.696 51.9557 35.4085C50.2962 36.8846 48.2168 37.8011 46.0104 38.0288C43.8891 38.4309 41.7219 38.5351 39.5715 38.3383C38.9667 38.3312 38.372 38.1841 37.8332 37.9086C37.2943 37.6331 36.8262 37.2364 36.4653 36.7497C35.8893 35.9656 34.7784 33.6753 36.7121 33.5722C36.8177 33.5699 36.9216 33.5457 37.0172 33.501C37.113 33.4563 37.1983 33.3922 37.268 33.3126C37.3375 33.2331 37.3901 33.1399 37.4218 33.0389C37.4536 32.938 37.464 32.8315 37.4528 32.7262C39.7119 32.2931 41.9138 31.6008 44.0149 30.6629C44.9628 30.2689 45.8778 29.7998 46.7511 29.2599C47.9453 29.2117 49.1411 29.2462 50.3306 29.363ZM39.6745 21.1098C42.1841 20.9035 45.8461 20.3051 48.0883 21.3987C50.9272 22.7398 48.191 26.3506 46.8952 27.3204C45.6281 28.2001 44.2426 28.8948 42.7807 29.3837C39.9418 30.4772 35.7247 32.6643 33.3795 29.5487C33.3006 29.4322 33.1926 29.3384 33.0662 29.2769C32.9399 29.2153 32.7996 29.1881 32.6595 29.198C30.952 24.5762 35.6629 21.4193 39.6745 21.0067V21.1098ZM16.6341 53.4005C14.7053 53.8026 12.7412 54.0098 10.7712 54.0195C7.1094 54.0195 6.65685 44.8377 5.95741 42.0317C4.62046 38.0923 3.72355 34.0166 3.28307 29.8789C3.1185 26.4331 10.5655 28.1457 13.2604 28.4552C13.1997 29.0727 13.1997 29.6947 13.2604 30.3122C13.3487 31.7667 13.569 33.2101 13.9187 34.6245C14.1861 36.1101 14.6592 37.5749 15.0501 39.0398C15.8018 42.7093 16.2355 46.4374 16.3461 50.1816C16.3443 50.3843 16.4101 50.5818 16.5332 50.7427C16.6562 50.9036 16.8293 51.0182 17.025 51.069V51.2755C18.321 53.5655 18.321 53.091 16.6341 53.4005ZM40.9088 48.49C38.5019 49.831 35.087 49.0676 32.4743 48.7581C29.516 48.2709 26.5048 48.1943 23.5257 48.5311C21.6742 48.882 18.2799 50.5945 18.033 47.7676C17.9507 45.7662 17.6833 43.7031 17.5187 41.6397C17.2307 38.6478 15.7495 35.8418 15.4615 32.85C17.6627 32.85 20.3987 32.2929 21.3656 30.4978C21.8799 30.828 22.6822 30.3121 22.2913 29.6725C20.1519 26.2681 26.1794 20.14 27.784 17.5197C29.8411 14.4247 29.5326 11.1853 29.368 7.67769C29.2446 5.1811 29.6971 1.4878 33.1943 1.85919C35.1281 2.10679 35.7041 5.13985 35.9921 6.66671C36.8561 11.3298 34.8401 16.5293 34.3052 21.213C31.5075 23.2763 29.8411 27.4029 32.0012 30.3534C32.2334 30.8627 32.5666 31.3193 32.9804 31.6952C33.3942 32.0713 33.8799 32.3588 34.4081 32.5405C34.0772 33.3453 33.9473 34.219 34.0298 35.0857C34.1122 35.9523 34.4045 36.7856 34.8812 37.5133C35.2444 38.0942 35.7217 38.5952 36.284 38.9853C36.8463 39.3755 37.4819 39.6469 38.1521 39.7828C37.7231 40.5597 37.5805 41.4631 37.75 42.3349C37.9191 43.2066 38.3895 43.9906 39.0779 44.5491C39.5887 45.0692 40.1968 45.4828 40.8677 45.7662C40.6549 46.1739 40.544 46.6267 40.544 47.0867C40.544 47.5466 40.6549 47.9998 40.8677 48.4075L40.9088 48.49ZM48.8081 47.9946C47.8057 48.5804 46.6547 48.86 45.4963 48.7995C44.5719 48.838 43.6632 48.5539 42.9248 47.9946C42.4103 47.5615 42.5544 46.9631 42.5749 46.3646C44.8792 46.6835 47.2237 46.5289 49.4667 45.9107C49.6929 45.9107 49.9192 45.7871 50.1454 45.7251C50.0935 46.1761 49.9479 46.6114 49.7176 47.0023C49.4872 47.3935 49.1773 47.7314 48.8081 47.9946ZM52.5317 42.6921C51.5585 43.5758 50.3373 44.1377 49.0347 44.3012C46.0104 45.0236 37.4939 45.0236 40.2091 40.1748C41.7936 40.2196 43.378 40.1091 44.9408 39.8447C45.9077 39.6797 46.9978 39.4938 48.0058 39.2048H48.1499C49.6929 39.5763 54.6919 39.9063 52.4907 42.6921H52.5317Z" fill="#231F20"/>
<path d="M50.8656 38.0703C51.7138 37.6775 52.4675 37.1052 53.0746 36.3929C53.6816 35.6806 54.1281 34.8451 54.3831 33.9436C54.5343 33.0028 54.4331 32.0386 54.0897 31.1502C53.7462 30.2617 53.1728 29.481 52.4291 28.8885C51.8758 28.46 51.2337 28.1615 50.5501 28.0151C49.8661 27.8686 49.1587 27.878 48.4792 28.0425C49.5761 27.3042 50.3545 26.1781 50.6595 24.8891C50.9649 23.6001 50.7737 22.2431 50.1249 21.0892C48.253 17.5403 39.8392 19.3767 36.8973 20.0163C36.6225 20.063 36.3536 20.1391 36.095 20.2432C36.7738 14.9405 39.0163 9.14265 36.8973 3.98438C35.4572 0.559307 32.0012 -0.967537 29.1006 1.92109C28.0952 3.34256 27.6217 5.0741 27.7634 6.81111C27.6194 10.4632 28.2366 13.1867 26.3234 16.6324C24.6365 19.6655 19.3702 24.8857 20.6045 29.0123C19.6376 31.0756 16.9221 31.1994 14.9061 31.0756C14.9061 30.9105 14.9061 30.7454 14.9061 30.5804C14.721 29.4868 14.6181 28.3726 14.4535 27.2791C14.4305 27.1676 14.3698 27.0675 14.2817 26.9956C14.1937 26.9237 14.0836 26.8845 13.9701 26.8845C13.8565 26.8845 13.7465 26.9237 13.6584 26.9956C13.5703 27.0675 13.5097 27.1676 13.4866 27.2791C10.7712 26.0205 6.26597 25.2158 3.67393 26.4744C-0.460986 28.4758 2.52192 34.4181 3.13907 37.5133C3.85909 41.2063 4.96994 44.7966 5.66938 48.49C6.08083 50.677 5.66938 53.2974 7.45914 54.886C10.154 57.1764 16.0169 55.3814 19.041 54.7829C19.2328 54.7284 19.4014 54.6119 19.5204 54.4514C19.6394 54.2909 19.7023 54.0956 19.6993 53.8959C19.6923 52.9868 19.5034 52.0889 19.1439 51.2545C20.4393 51.1366 21.7205 50.8947 22.9702 50.5325C25.8447 50.0584 28.777 50.0584 31.6515 50.5325C34.7578 50.8215 39.1806 51.8944 41.9373 49.831V49.728C42.9113 50.3418 44.0373 50.6707 45.1875 50.677C47.8001 50.8006 52.3876 48.7995 51.215 45.4361C52.083 45.2028 52.8584 44.7074 53.436 44.0171C54.0139 43.3272 54.3659 42.4756 54.4451 41.5777C54.4656 39.2463 52.7374 38.2764 50.8656 38.0703ZM50.3306 29.363C53.1694 29.817 53.4162 33.696 51.9557 35.4085C50.2962 36.8846 48.2168 37.8011 46.0104 38.0288C43.8891 38.4309 41.7219 38.5351 39.5715 38.3383C38.9667 38.3312 38.372 38.1841 37.8332 37.9086C37.2943 37.6331 36.8262 37.2364 36.4653 36.7497C35.8893 35.9656 34.7784 33.6753 36.7121 33.5722C36.8177 33.5699 36.9216 33.5457 37.0172 33.501C37.113 33.4563 37.1983 33.3922 37.268 33.3126C37.3375 33.2331 37.3901 33.1399 37.4218 33.0389C37.4536 32.938 37.464 32.8315 37.4528 32.7262C39.7119 32.2931 41.9138 31.6008 44.0149 30.6629C44.9628 30.2689 45.8778 29.7998 46.7511 29.2599C47.9453 29.2117 49.1411 29.2462 50.3306 29.363ZM39.6745 21.1098C42.1841 20.9035 45.8461 20.3051 48.0883 21.3987C50.9272 22.7398 48.191 26.3506 46.8952 27.3204C45.6281 28.2001 44.2426 28.8948 42.7807 29.3837C39.9418 30.4772 35.7247 32.6643 33.3795 29.5487C33.3006 29.4322 33.1926 29.3384 33.0662 29.2769C32.9399 29.2153 32.7996 29.1881 32.6595 29.198C30.952 24.5762 35.6629 21.4193 39.6745 21.0067V21.1098ZM16.6341 53.4005C14.7053 53.8026 12.7412 54.0098 10.7712 54.0195C7.1094 54.0195 6.65685 44.8377 5.95741 42.0317C4.62046 38.0923 3.72355 34.0166 3.28307 29.8789C3.1185 26.4331 10.5655 28.1457 13.2604 28.4552C13.1997 29.0727 13.1997 29.6947 13.2604 30.3122C13.3487 31.7667 13.569 33.2101 13.9187 34.6245C14.1861 36.1101 14.6592 37.5749 15.0501 39.0398C15.8018 42.7093 16.2355 46.4374 16.3461 50.1816C16.3443 50.3843 16.4101 50.5818 16.5332 50.7427C16.6562 50.9036 16.8293 51.0182 17.025 51.069V51.2755C18.321 53.5655 18.321 53.091 16.6341 53.4005ZM40.9088 48.49C38.5019 49.831 35.087 49.0676 32.4743 48.7581C29.516 48.2709 26.5048 48.1943 23.5257 48.5311C21.6742 48.882 18.2799 50.5945 18.033 47.7676C17.9507 45.7662 17.6833 43.7031 17.5187 41.6397C17.2307 38.6478 15.7495 35.8418 15.4615 32.85C17.6627 32.85 20.3987 32.2929 21.3656 30.4978C21.8799 30.828 22.6822 30.3121 22.2913 29.6725C20.1519 26.2681 26.1794 20.14 27.784 17.5197C29.8411 14.4247 29.5326 11.1853 29.368 7.67769C29.2446 5.1811 29.6971 1.4878 33.1943 1.85919C35.1281 2.10679 35.7041 5.13985 35.9921 6.66671C36.8561 11.3298 34.8401 16.5293 34.3052 21.213C31.5075 23.2763 29.8411 27.4029 32.0012 30.3534C32.2334 30.8627 32.5666 31.3193 32.9804 31.6952C33.3942 32.0713 33.8799 32.3588 34.4081 32.5405C34.0772 33.3453 33.9473 34.219 34.0298 35.0857C34.1122 35.9523 34.4045 36.7856 34.8812 37.5133C35.2444 38.0942 35.7217 38.5952 36.284 38.9853C36.8463 39.3755 37.4819 39.6469 38.1521 39.7828C37.7231 40.5597 37.5805 41.4631 37.75 42.3349C37.9191 43.2066 38.3895 43.9906 39.0779 44.5491C39.5887 45.0692 40.1968 45.4828 40.8677 45.7662C40.6549 46.1739 40.544 46.6267 40.544 47.0867C40.544 47.5466 40.6549 47.9998 40.8677 48.4075L40.9088 48.49ZM48.8081 47.9946C47.8057 48.5804 46.6547 48.86 45.4963 48.7995C44.5719 48.838 43.6632 48.5539 42.9248 47.9946C42.4103 47.5615 42.5544 46.9631 42.5749 46.3646C44.8792 46.6835 47.2237 46.5289 49.4667 45.9107C49.6929 45.9107 49.9192 45.7871 50.1454 45.7251C50.0935 46.1761 49.9479 46.6114 49.7176 47.0023C49.4872 47.3935 49.1773 47.7314 48.8081 47.9946ZM52.5317 42.6921C51.5585 43.5758 50.3373 44.1377 49.0347 44.3012C46.0104 45.0236 37.4939 45.0236 40.2091 40.1748C41.7936 40.2196 43.378 40.1091 44.9408 39.8447C45.9077 39.6797 46.9978 39.4938 48.0058 39.2048H48.1499C49.6929 39.5763 54.6919 39.9063 52.4907 42.6921H52.5317Z" stroke="#231F20" mask="url(#path-1-outside-1)"/>
<path d="M11.0356 49.056L11.0366 49.0445C11.0464 48.9387 11.0808 48.8363 11.1372 48.7461C11.1741 48.6867 11.2198 48.6336 11.2725 48.5885C11.3311 48.4065 11.4434 48.2457 11.5958 48.128C11.7731 47.9906 11.9933 47.9206 12.2172 47.9305H12.2837C12.3701 47.8642 12.4672 47.8129 12.5711 47.779C12.7083 47.7339 12.8541 47.7198 12.9979 47.7385C13.1417 47.7571 13.2793 47.808 13.4007 47.8869C13.5208 47.965 13.6222 48.0687 13.6976 48.1906C13.8363 48.4014 13.9303 48.6386 13.9735 48.8877C14.017 49.1378 14.0083 49.3944 13.9479 49.641C13.8876 49.8881 13.7768 50.1196 13.6227 50.3214L13.6225 50.3216C13.4685 50.5228 13.2744 50.6905 13.0522 50.8133L13.0249 50.8284L12.9946 50.8363C12.7359 50.9041 12.4643 50.9032 12.2062 50.8341C11.948 50.7651 11.7122 50.6301 11.5217 50.4427L11.5155 50.4366L11.5097 50.4301C11.4499 50.3624 11.3986 50.2877 11.3571 50.2076C11.2168 50.1056 11.1098 49.9634 11.0506 49.7988L11.0356 49.056ZM11.0356 49.056V49.0676V49.2549C10.9825 49.4328 10.9874 49.6233 11.0505 49.7987L11.0356 49.056Z" fill="#231F20" stroke="#231F20" stroke-width="0.5"/>
</g>
<defs>
<clipPath id="clip0">
<rect width="56" height="56" fill="white"/>
</clipPath>
</defs>
</svg>
